<svg xmlns="http://www.w3.org/2000/svg" viewBox="0 0 14.25 17.25"><defs><style>.cls-1{fill:none;stroke:#fff;stroke-miterlimit:10;stroke-width:0.75px;}</style></defs><g id="Layer_2" data-name="Layer 2"><g id="Layer_1-2" data-name="Layer 1"><path class="cls-1" d="M10.38,13.38v1.73a1.77,1.77,0,0,1-1.77,1.77H2.14A1.76,1.76,0,0,1,.38,15.11V5.64A1.75,1.75,0,0,1,2.14,3.88H3.88v7.73a1.76,1.76,0,0,0,1.76,1.77Z"/><path class="cls-1" d="M10.38,13.38h1.73a1.78,1.78,0,0,0,1.77-1.77V3.89s0,0,0,0H10.38V.38H5.64A1.76,1.76,0,0,0,3.88,2.14V3.88"/><line class="cls-1" x1="10.38" y1="0.38" x2="13.88" y2="3.88"/></g></g></svg>