<svg xmlns="http://www.w3.org/2000/svg" viewBox="0 0 1317.48 131.53"><defs><style>.cls-1{fill:#9e7b2f;}.cls-2{fill:#606060;}.cls-3{fill:none;stroke:#606060;stroke-miterlimit:10;}</style></defs><g id="Layer_2" data-name="Layer 2"><g id="Layer_1-2" data-name="Layer 1"><path class="cls-1" d="M68,1.45V2H66.71c-3.21,0-4.85.81-6,3.78L45.29,45.55h-.76L34.58,22,25.44,45.55h-.75L7.87,5.8C6.35,3,5.53,2,2.38,2H1.63V1.45H15.24V2H14c-3.22,0-2.9.81-1.7,3.78L26.83,40.07l7.37-19L27.71,5.8C26.2,3,25.38,2,22.17,2h-.69V1.45h13.6V2H33.82c-3.21,0-2.89.81-1.7,3.78l4.16,9.89,4.1-10.46C41.57,2,40.56,2,37.35,2h-.06V1.45H48.13V2H46.86c-3.21,0-4.85.81-6,3.78L36.66,16.57l10,23.5L60,5.8C61.23,2.65,59.4,2,56.19,2H54.93V1.45Z"/><path class="cls-1" d="M141.24,1.45V2H140c-3.21,0-4.85.81-6,3.78L118.56,45.55h-.76L107.85,22,98.71,45.55H98L81.13,5.8C79.62,3,78.8,2,75.65,2H74.9V1.45H88.51V2H87.25c-3.22,0-2.9.81-1.71,3.78L100.1,40.07l7.37-19L101,5.8C99.47,3,98.65,2,95.44,2h-.7V1.45h13.61V2h-1.26c-3.21,0-2.9.81-1.7,3.78l4.16,9.89,4.09-10.46c1.2-3.21.19-3.21-3-3.21h-.06V1.45h10.83V2h-1.26c-3.21,0-4.85.81-6,3.78l-4.16,10.77,10,23.5L133.24,5.8C134.5,2.65,132.67,2,129.46,2H128.2V1.45Z"/><path class="cls-1" d="M158.5,5.86V41.2c0,3.15.56,3.85,3.78,3.85h1.26v.5H149.43v-.5h1.26c3.21,0,3.78-.7,3.78-3.85V5.86c0-3.21-.57-3.84-3.78-3.84h-1.26V1.45h14.11V2h-1.26C159.06,2,158.5,2.65,158.5,5.86Z"/><path class="cls-1" d="M220.37,1.45V2h-1.26c-3.15,0-5.42.63-5.42,3.78V45.55h-.76L179.79,4.28V41.2c0,3.15,2.27,3.85,5.42,3.85h1.26v.5H172.36v-.5h1.26c3.21,0,5.42-.7,5.42-3.85V5.8C179,2.65,176.83,2,173.62,2h-1.26V1.45h10.83l29.74,36.92V5.8c0-3.15-2.2-3.78-5.42-3.78h-1.26V1.45Z"/><path class="cls-1" d="M282.61,35.16c-1,6.23-7.06,10.77-15.25,10.77-9.2,0-14.36-5-16.06-4.6-.82.13-.76,1.39-.76,4.35v.88H250V31.69h.57V34c0,6,7.31,10.71,15.88,11.28,7.75.44,12.6-3,13.1-8.95.63-7.49-7.56-9.57-14.87-12.72C255.52,19.72,252.18,16,253.38,9.7c1.13-6,8.69-8.82,13.54-8.63,7.69.32,10.46,4.29,11.78,3.66.57-.19.38-.89.38-3.85V0h.57V14.87h-.57V12.54c0-6-3.84-10.46-12.16-10.84-5.29-.25-9.89,2-10.27,7.69-.25,4.22,2.77,7.24,10.84,10.58C278,24.26,283.93,27.09,282.61,35.16Z"/><path class="cls-1" d="M328.66,45.05v.5h-9.14v-7a10.25,10.25,0,0,1-10.14,7.37c-7.43,0-13-3.72-13-11.78V19.47c0-3.22-.57-3.85-3.78-3.85H291.3v-.56h9.07V34.9c0,6.68,4.16,10.27,9.83,10.27,6.3,0,9.32-5.73,9.32-10.52V19.47c0-3.22-.56-3.85-3.71-3.85h-1.26v-.56h9.07V41.2c0,3.15.57,3.85,3.78,3.85Z"/><path class="cls-1" d="M370.37,30.3c0,9.14-6.56,15.88-16.26,15.63-4.72-.13-9.51-3.4-10.71-7.62l-3.21,7.24h-.82V5.8c0-3.15-.57-3.78-3.78-3.78h-1.26V1.45h9.13v20.6c1.33-4.09,6.05-7.31,10.65-7.43C363.81,14.37,370.37,21.17,370.37,30.3Zm-4.1,0c0-9-5-15.18-12.16-15-6.05.19-10.65,4.85-10.65,9.51V35.85c0,4.66,4.6,9.32,10.65,9.51C361.23,45.55,366.27,39.31,366.27,30.3Z"/><path class="cls-1" d="M413.46,42.28c-1,1.51-3.15,3.65-6,3.65-3.08,0-5.1-1.76-5.1-5.48V35.66c-.63,3.4-3.72,9.89-10.65,10.27-5,.25-10.71-2-10.9-7.5-.25-6.61,5.67-8.31,12.79-9.51,6-1,8-3.47,8.76-4.85,0-7.44-3.34-9-7.43-9-3.34,0-4.86,2.71-6.87,4.66-1.58,1.51-2.84,1.51-3.59.57-.63-.76-.26-2,.88-2.71a19.72,19.72,0,0,1,9.7-3c7.18,0,11.34,3.53,11.34,11.59V40.83c0,3.21.69,4.22,2,4.34,1.52.19,3.6-1.26,4.79-3.15ZM402.37,24.82c-1.32,1.52-2.77,3.41-9.51,4.73-3.85.82-8.7,2.77-8.38,8.63.31,5,4.41,7.18,8.94,6.74,5.17-.5,8.95-6.68,8.95-12.28Z"/><path class="cls-1" d="M457.75,45.05v.5H443.63v-.5h1.26c3.15,0,3.78-.7,3.78-3.85V25.71c0-6.3-3.4-10.27-8.63-10.27-6.3,0-10.52,5.79-10.52,10.52V41.2c0,3.15.57,3.85,3.72,3.85h1.26v.5H420.39v-.5h1.26c3.21,0,3.78-.7,3.78-3.85V19.47c0-3.22-.57-3.85-3.78-3.85h-1.26v-.56h9.13v7.31a11.87,11.87,0,0,1,11.22-7.75c7.24,0,12,4.22,12,11.9V41.2c0,3.15.56,3.85,3.78,3.85Z"/><path class="cls-1" d="M498.32,42.28c-1,1.51-3.15,3.65-6,3.65-3.09,0-5.1-1.76-5.1-5.48V35.66c-.63,3.4-3.72,9.89-10.65,10.27-5,.25-10.71-2-10.9-7.5-.25-6.61,5.67-8.31,12.79-9.51,6-1,8-3.47,8.76-4.85,0-7.44-3.34-9-7.44-9-3.33,0-4.85,2.71-6.86,4.66-1.58,1.51-2.84,1.51-3.59.57-.63-.76-.26-2,.88-2.71a19.72,19.72,0,0,1,9.7-3c7.18,0,11.34,3.53,11.34,11.59V40.83c0,3.21.69,4.22,1.95,4.34,1.52.19,3.6-1.26,4.79-3.15ZM487.23,24.82c-1.32,1.52-2.77,3.41-9.51,4.73-3.85.82-8.7,2.77-8.38,8.63.31,5,4.41,7.18,8.94,6.74,5.17-.5,9-6.68,9-12.28Z"/><path class="cls-1" d="M529.82,17.2c-.26,1.2-1.89,1.64-3.85.76-3-1.45-5.54-2.46-8.19.06-2.39,2.2-3.46,6.68-3.46,9.7V41.2c0,3.15.57,3.85,3.78,3.85h3.46v.5H505.25v-.5h1.26c3.15,0,3.78-.7,3.78-3.85V19.47c0-3.22-.63-3.85-3.78-3.85h-1.26v-.56h9.07V24a20.53,20.53,0,0,1,3-6.48c2-2.59,5.36-3.22,10-2.65C529.19,15.12,530.2,15.75,529.82,17.2Z"/><path class="cls-1" d="M568.63,42.28c-1,1.51-3.15,3.65-6,3.65-3.09,0-5.1-1.76-5.1-5.48V35.66c-.63,3.4-3.72,9.89-10.65,10.27-5,.25-10.71-2-10.9-7.5-.25-6.61,5.67-8.31,12.79-9.51,6-1,8-3.47,8.76-4.85,0-7.44-3.34-9-7.44-9-3.34,0-4.85,2.71-6.86,4.66-1.58,1.51-2.84,1.51-3.6.57-.63-.76-.25-2,.89-2.71a19.72,19.72,0,0,1,9.7-3c7.18,0,11.34,3.53,11.34,11.59V40.83c0,3.21.69,4.22,1.95,4.34,1.51.19,3.59-1.26,4.79-3.15ZM557.54,24.82c-1.33,1.52-2.77,3.41-9.52,4.73-3.84.82-8.69,2.77-8.38,8.63.32,5,4.41,7.18,9,6.74,5.17-.5,8.95-6.68,8.95-12.28Z"/><path class="cls-1" d="M584.12,15.06V44.48c0,13.17-6,15.75-8.88,16.57a19.48,19.48,0,0,1-7.18.38c-1.51-.25-3-.88-2.84-2.08.06-1.45,1.26-1.64,2.77-1.13s4.23,2.77,7.06,2.26c3.28-.63,5-3.46,5-16V19.41c0-3.16-.57-3.79-3.78-3.79h-1.26v-.56ZM578.83,5.8a2.93,2.93,0,0,1,2.9-2.9,2.89,2.89,0,0,1,2.9,2.9,2.85,2.85,0,0,1-2.9,2.89A2.89,2.89,0,0,1,578.83,5.8Z"/><path class="cls-1" d="M629,42.28c-1,1.51-3.15,3.65-6,3.65-3.09,0-5.11-1.76-5.11-5.48V35.66c-.63,3.4-3.72,9.89-10.65,10.27-5,.25-10.71-2-10.9-7.5-.25-6.61,5.68-8.31,12.79-9.51,6-1,8-3.47,8.76-4.85,0-7.44-3.34-9-7.43-9-3.34,0-4.85,2.71-6.87,4.66-1.57,1.51-2.84,1.51-3.59.57-.63-.76-.25-2,.88-2.71a19.76,19.76,0,0,1,9.7-3c7.19,0,11.34,3.53,11.34,11.59V40.83c0,3.21.7,4.22,2,4.34,1.51.19,3.59-1.26,4.79-3.15ZM617.89,24.82c-1.32,1.52-2.77,3.41-9.51,4.73-3.85.82-8.7,2.77-8.38,8.63.31,5,4.41,7.18,9,6.74,5.16-.5,8.94-6.68,8.94-12.28Z"/><path class="cls-1" d="M701.74,24.63v.51h-.12c-3.21,0-3.78.63-3.78,3.84V45.55h-.51V41c0-.57-.12-.82-.56-1-1.77-.44-5.17,5.86-15.88,5.86-12.35,0-24.19-8.44-24.76-21A23,23,0,0,1,679.19,1c10.27,0,13.48,5.48,15.44,5.1.75-.12.69-1.38.69-4.35V1h.57v14.8h-.57V13.42c0-6.17-6.43-12-16.45-11.72-10.58.25-18.58,8.82-18.14,21.8.38,12.66,9.2,21.74,20.16,21.74,7.06,0,10.59-3,13-6.05V29c0-3.21-.57-3.84-3.78-3.84h-7.88v-.51Z"/><path class="cls-1" d="M743.57,42.28c-1,1.51-3.14,3.65-6,3.65-3.09,0-5.1-1.76-5.1-5.48V35.66c-.63,3.4-3.72,9.89-10.65,10.27-5,.25-10.71-2-10.9-7.5-.25-6.61,5.67-8.31,12.79-9.51,6-1,8-3.47,8.76-4.85,0-7.44-3.34-9-7.44-9-3.34,0-4.85,2.71-6.86,4.66-1.58,1.51-2.84,1.51-3.6.57-.63-.76-.25-2,.89-2.71a19.72,19.72,0,0,1,9.7-3c7.18,0,11.34,3.53,11.34,11.59V40.83c0,3.21.69,4.22,2,4.34,1.51.19,3.59-1.26,4.79-3.15ZM732.49,24.82c-1.33,1.52-2.78,3.41-9.52,4.73-3.84.82-8.69,2.77-8.38,8.63.32,5,4.41,7.18,8.95,6.74,5.17-.5,9-6.68,9-12.28Z"/><path class="cls-1" d="M775.07,17.2c-.25,1.2-1.88,1.64-3.84.76-3-1.45-5.54-2.46-8.19.06-2.39,2.2-3.46,6.68-3.46,9.7V41.2c0,3.15.56,3.85,3.78,3.85h3.46v.5H750.5v-.5h1.26c3.15,0,3.78-.7,3.78-3.85V19.47c0-3.22-.63-3.85-3.78-3.85H750.5v-.56h9.08V24a20.32,20.32,0,0,1,3-6.48c1.95-2.59,5.36-3.22,10-2.65C774.44,15.12,775.45,15.75,775.07,17.2Z"/><path class="cls-1" d="M820.75,45.05v.5h-9.14v-7a10.25,10.25,0,0,1-10.14,7.37c-7.43,0-13-3.72-13-11.78V19.47c0-3.22-.57-3.85-3.78-3.85h-1.26v-.56h9.07V34.9c0,6.68,4.16,10.27,9.83,10.27,6.3,0,9.32-5.73,9.32-10.52V19.47c0-3.22-.56-3.85-3.71-3.85h-1.26v-.56h9.07V41.2c0,3.15.57,3.85,3.78,3.85Z"/><path class="cls-1" d="M864.91,45.05v.5h-9.13v-7c-1.33,4.09-6,7.24-10.59,7.37-9.7.25-16.25-6.49-16.25-15.63s6.55-15.93,16.25-15.68c4.6.12,9.26,3.34,10.59,7.43V5.8c0-3.15-.57-3.78-3.72-3.78H850.8V1.45h9.07V41.2c0,3.15.57,3.85,3.78,3.85Zm-9.13-9.2V24.76c0-4.66-4.6-9.32-10.59-9.51C838,15.12,833,21.29,833,30.3s5,15.25,12.16,15.06C851.18,45.17,855.78,40.51,855.78,35.85Z"/><path class="cls-1" d="M906.11,42.28c-1,1.51-3.15,3.65-6,3.65-3.09,0-5.11-1.76-5.11-5.48V35.66c-.62,3.4-3.71,9.89-10.64,10.27-5,.25-10.71-2-10.9-7.5-.25-6.61,5.67-8.31,12.79-9.51,6-1,8-3.47,8.75-4.85,0-7.44-3.33-9-7.43-9-3.34,0-4.85,2.71-6.87,4.66-1.57,1.51-2.83,1.51-3.59.57-.63-.76-.25-2,.88-2.71a19.79,19.79,0,0,1,9.71-3c7.18,0,11.34,3.53,11.34,11.59V40.83c0,3.21.69,4.22,2,4.34,1.51.19,3.59-1.26,4.79-3.15ZM895,24.82c-1.32,1.52-2.77,3.41-9.51,4.73-3.84.82-8.69,2.77-8.38,8.63.32,5,4.41,7.18,9,6.74,5.16-.5,8.94-6.68,8.94-12.28Z"/><path class="cls-2" d="M934,14.3C934.59,8.13,939.56.44,950,1c6.87.38,16.44,5.79,15.12,20-1.51,15.88-17,24.58-28.1,24.7l.06-.57c6.94-.06,21.8-3.84,23-22.93-1.95,4.6-7.56,7.88-14.49,7A13.11,13.11,0,0,1,934,14.3Zm12.91,13.8c5.86,1.51,13-2.77,13.23-9.32.57-15.31-8-17.52-12.09-17.08-6.62.69-9.2,7.06-9.39,12.54C938.43,21.67,941.27,26.65,946.87,28.1Z"/><path class="cls-2" d="M977.3,14.3c.63-6.17,5.61-13.86,16-13.29,6.87.38,16.45,5.79,15.12,20-1.51,15.88-16.94,24.58-28.1,24.7l.07-.57c6.93-.06,21.8-3.84,23-22.93-2,4.6-7.56,7.88-14.49,7A13.12,13.12,0,0,1,977.3,14.3Zm12.92,13.8c5.85,1.51,13-2.77,13.23-9.32.56-15.31-8-17.52-12.1-17.08-6.62.69-9.2,7.06-9.39,12.54C981.77,21.67,984.61,26.65,990.22,28.1Z"/><path class="cls-2" d="M1020.64,14.3c.63-6.17,5.61-13.86,16-13.29,6.86.38,16.44,5.79,15.12,20-1.52,15.88-17,24.58-28.1,24.7l.06-.57c6.93-.06,21.8-3.84,23-22.93-2,4.6-7.56,7.88-14.49,7A13.12,13.12,0,0,1,1020.64,14.3Zm12.92,13.8c5.86,1.51,13-2.77,13.23-9.32.57-15.31-8-17.52-12.1-17.08-6.61.69-9.2,7.06-9.38,12.54C1025.12,21.67,1028,26.65,1033.56,28.1Z"/><path class="cls-2" d="M1128.69,5.86V41.2c0,3.15.57,3.85,3.78,3.85h1.26v.5h-14.11v-.5h1.26c3.21,0,3.78-.7,3.78-3.85V2.71l-17.58,30.75h-.76L1088.3,5V41.2c0,3.15,2.27,3.85,5.48,3.85H1095v.5h-14.17v-.5h1.26c3.21,0,5.48-.7,5.48-3.85V5.86c0-3.21-2.27-3.84-5.48-3.84h-1.26V1.45h10.21l17.57,27.91,16-27.91h9.07V2h-1.26C1129.26,2,1128.69,2.65,1128.69,5.86Z"/><path class="cls-2" d="M1156.72,45.05v.5h-14.17v-.5h1.26c3.21,0,3.78-.7,3.78-3.85V19.41c0-3.16-.57-3.79-3.78-3.79h-1.26v-.56h9.13V41.2c0,3.15.57,3.85,3.78,3.85ZM1146.39,5.8a2.89,2.89,0,0,1,2.9-2.9,2.93,2.93,0,0,1,2.9,2.9,2.89,2.89,0,0,1-2.9,2.89A2.85,2.85,0,0,1,1146.39,5.8Z"/><path class="cls-2" d="M1202.27,45.05v.5h-14.11v-.5h1.26c3.15,0,3.78-.7,3.78-3.85V25.71c0-6.3-3.4-10.27-8.63-10.27-6.3,0-10.52,5.79-10.52,10.52V41.2c0,3.15.56,3.85,3.71,3.85H1179v.5h-14.11v-.5h1.26c3.21,0,3.78-.7,3.78-3.85V19.47c0-3.22-.57-3.85-3.78-3.85h-1.26v-.56h9.14v7.31a11.84,11.84,0,0,1,11.21-7.75c7.25,0,12,4.22,12,11.9V41.2c0,3.15.57,3.85,3.78,3.85Z"/><path class="cls-2" d="M1229.48,40.32c-1,1.2-3.84,5.61-7.93,5.61-5.61,0-8.26-2.77-8.26-9.32v-21h-5.35v-.56c4.72,0,7.94-4.6,9-9.77h.44v9.77h9.39v.56h-9.39V37.68c0,6,2.27,7.37,4.85,7.37,3.59,0,5.67-3.47,6.93-5Z"/><path class="cls-2" d="M1271.25,33.14c-2,3.47-7.56,12.79-18.14,12.79-9.32,0-15.81-5.48-16-14.11-.19-9.39,7.37-17.2,16.32-17.2,6.86,0,12.22,4.53,12.22,11.4H1241a22.43,22.43,0,0,0-.13,4.6c.82,8.76,6.75,12.92,13.42,13.36,10,.63,15-8,16.7-11.09Zm-30.17-7.62h20.6c.25-5.17-2.46-10.15-9.33-10.21C1246.75,15.25,1242.21,19.22,1241.08,25.52Z"/><path class="cls-2" d="M1312.9,45.05v.5h-9.14v-7c-1.32,4.09-6,7.24-10.58,7.37-9.71.25-16.26-6.49-16.26-15.63s6.55-15.93,16.26-15.68c4.6.12,9.26,3.34,10.58,7.43V5.8c0-3.15-.57-3.78-3.72-3.78h-1.26V1.45h9.08V41.2c0,3.15.56,3.85,3.78,3.85Zm-9.14-9.2V24.76c0-4.66-4.6-9.32-10.58-9.51-7.19-.13-12.16,6-12.16,15.05s5,15.25,12.16,15.06C1299.16,45.17,1303.76,40.51,1303.76,35.85Z"/><line class="cls-3" x1="794.59" y1="79.99" x2="794.59" y2="117.87"/><line class="cls-3" x1="386.41" y1="79.99" x2="386.41" y2="117.87"/><path class="cls-2" d="M18.14,109.06a12,12,0,0,1-3.23,1.13,19.14,19.14,0,0,1-3.67.32A12.46,12.46,0,0,1,7.66,110a10.67,10.67,0,0,1-2.85-1.32,9.92,9.92,0,0,1-2.16-2,12.25,12.25,0,0,1-1.5-2.43,12.62,12.62,0,0,1-.87-2.69A13.58,13.58,0,0,1,0,98.87a13.74,13.74,0,0,1,.33-3,12,12,0,0,1,1-2.8,11.21,11.21,0,0,1,1.61-2.44,10.09,10.09,0,0,1,2.27-1.93A11,11,0,0,1,8.1,87.43,13.39,13.39,0,0,1,11.68,87a17.46,17.46,0,0,1,3.32.29,11.31,11.31,0,0,1,2.85.89V90a11.55,11.55,0,0,0-2.74-1,14.18,14.18,0,0,0-3.21-.34A12.12,12.12,0,0,0,8.84,89a9.37,9.37,0,0,0-2.48,1,8.22,8.22,0,0,0-1.92,1.59,8.6,8.6,0,0,0-1.36,2,10.6,10.6,0,0,0-.81,2.4A12.83,12.83,0,0,0,2,98.77a13.32,13.32,0,0,0,.27,2.71,10.39,10.39,0,0,0,.83,2.41,8.89,8.89,0,0,0,1.37,2,7.75,7.75,0,0,0,1.89,1.57,9,9,0,0,0,2.41,1,11.15,11.15,0,0,0,2.91.36,12.7,12.7,0,0,0,1.85-.14c.61-.1,1.19-.23,1.75-.38a15,15,0,0,0,1.56-.54c.49-.21.92-.41,1.3-.62Z"/><path class="cls-2" d="M26.49,101.75a8.61,8.61,0,0,1,.3-2.29,8.86,8.86,0,0,1,.85-2A8.36,8.36,0,0,1,29,95.67a8.56,8.56,0,0,1,1.72-1.34,8.68,8.68,0,0,1,2-.87,8.37,8.37,0,0,1,2.25-.3,8.28,8.28,0,0,1,2.23.3,8.75,8.75,0,0,1,2,.87,8.23,8.23,0,0,1,1.71,1.34,8.36,8.36,0,0,1,1.33,1.74,8.86,8.86,0,0,1,.85,2,8.72,8.72,0,0,1,.3,2.29,8.59,8.59,0,0,1-.3,2.28,8.48,8.48,0,0,1-2.18,3.8,8.23,8.23,0,0,1-1.71,1.34,8.75,8.75,0,0,1-2,.87,7.9,7.9,0,0,1-2.23.31,8,8,0,0,1-2.25-.31,8.68,8.68,0,0,1-2-.87A8.56,8.56,0,0,1,29,107.83a8.48,8.48,0,0,1-2.18-3.8A8.59,8.59,0,0,1,26.49,101.75Zm1.71,0a7.3,7.3,0,0,0,.52,2.77,7.7,7.7,0,0,0,1.44,2.27,6.81,6.81,0,0,0,2.14,1.53,6.43,6.43,0,0,0,5.25,0,6.93,6.93,0,0,0,2.14-1.53A7.47,7.47,0,0,0,41.13,99a7.15,7.15,0,0,0-1.44-2.26,6.77,6.77,0,0,0-2.14-1.53,6.43,6.43,0,0,0-5.25,0,6.66,6.66,0,0,0-2.14,1.53A7.52,7.52,0,0,0,28.72,99,7.35,7.35,0,0,0,28.2,101.76Z"/><path class="cls-2" d="M51.55,97.83h9.87v1.81H51.55Z"/><path class="cls-2" d="M79,87.08a6.18,6.18,0,0,0-.74-.11,8,8,0,0,0-.83,0,4,4,0,0,0-1.79.35,2.49,2.49,0,0,0-1,1,4.3,4.3,0,0,0-.51,1.54,15.3,15.3,0,0,0-.12,2v1.6h3v1.45H74v15.28H72.34V94.85H70V93.4h2.33V92.16c0-.64,0-1.23.07-1.75a11.2,11.2,0,0,1,.2-1.43,6.07,6.07,0,0,1,.4-1.16,4.5,4.5,0,0,1,.62-.94,4.65,4.65,0,0,1,3.68-1.42h.37l.44,0,.46,0,.44.07Z"/><path class="cls-2" d="M84.64,101.75a8.61,8.61,0,0,1,.3-2.29,8.46,8.46,0,0,1,.86-2,8.32,8.32,0,0,1,1.32-1.74,8.56,8.56,0,0,1,1.72-1.34,8.68,8.68,0,0,1,2-.87,8.55,8.55,0,0,1,4.49,0,8.87,8.87,0,0,1,2,.87,8.23,8.23,0,0,1,1.71,1.34,8.52,8.52,0,0,1,2.18,3.79,8.73,8.73,0,0,1,.31,2.29,8.86,8.86,0,0,1-1.16,4.34,8.92,8.92,0,0,1-1.33,1.74,8.23,8.23,0,0,1-1.71,1.34,8.87,8.87,0,0,1-2,.87,8.28,8.28,0,0,1-4.49,0,8.68,8.68,0,0,1-2-.87,8.56,8.56,0,0,1-1.72-1.34,8.87,8.87,0,0,1-1.32-1.74,8.59,8.59,0,0,1-1.16-4.34Zm1.71,0a7.12,7.12,0,0,0,.53,2.77,7.32,7.32,0,0,0,1.44,2.27,6.66,6.66,0,0,0,2.13,1.53,6.43,6.43,0,0,0,5.25,0,6.81,6.81,0,0,0,2.14-1.53,7.32,7.32,0,0,0,1.44-2.27,7.39,7.39,0,0,0-1.44-7.81,6.66,6.66,0,0,0-2.14-1.53,6.43,6.43,0,0,0-5.25,0,6.51,6.51,0,0,0-2.13,1.53,7.31,7.31,0,0,0-2,5Z"/><path class="cls-2" d="M121.51,110.13v-2.2a6.87,6.87,0,0,1-1.52,1.34,7.28,7.28,0,0,1-1.5.72,6.07,6.07,0,0,1-1.31.3c-.39,0-.7.06-.94.06a6.45,6.45,0,0,1-2.32-.39,4.41,4.41,0,0,1-1.72-1.13,5,5,0,0,1-1.07-1.87,8.28,8.28,0,0,1-.36-2.56v-11h1.63v11.22a6,6,0,0,0,.24,1.77,3.41,3.41,0,0,0,.73,1.34,3.14,3.14,0,0,0,1.25.86,5,5,0,0,0,1.83.3,5.4,5.4,0,0,0,1.49-.2,5.88,5.88,0,0,0,1.4-.57,5.66,5.66,0,0,0,2.17-2.17V93.4h1.63v16.73Z"/><path class="cls-2" d="M135.47,95.89h0a10.65,10.65,0,0,1,1.33-1.23,7.51,7.51,0,0,1,1.35-.84,6.37,6.37,0,0,1,1.43-.49,7.66,7.66,0,0,1,1.54-.15,6.63,6.63,0,0,1,2.11.32,3.87,3.87,0,0,1,1.61,1,4.59,4.59,0,0,1,1,1.84,9,9,0,0,1,.35,2.73v11h-1.63V99.28a7.81,7.81,0,0,0-.21-1.87,4.33,4.33,0,0,0-.65-1.46,3,3,0,0,0-1.15-1,3.74,3.74,0,0,0-1.67-.35,6.14,6.14,0,0,0-2.7.63,7.5,7.5,0,0,0-1.38.87,10.29,10.29,0,0,0-1.38,1.3v12.7h-1.63V93.39h1.63Z"/><path class="cls-2" d="M167.45,85.4h1.63v24a10.08,10.08,0,0,1-1.28.44c-.46.12-1,.23-1.46.31s-1,.14-1.54.18-1,.06-1.54.06a8.54,8.54,0,0,1-3.39-.64,6.71,6.71,0,0,1-2.47-1.82,8,8,0,0,1-1.52-2.82,12.34,12.34,0,0,1-.51-3.65A10.39,10.39,0,0,1,155.9,98a7.48,7.48,0,0,1,1.46-2.6,6.31,6.31,0,0,1,2.25-1.65,6.85,6.85,0,0,1,2.85-.58h.77a10.1,10.1,0,0,1,1.2.14,9.79,9.79,0,0,1,1.46.4,7,7,0,0,1,1.56.83Zm0,11.07a9.2,9.2,0,0,0-1-.78,5.75,5.75,0,0,0-1.13-.58,6.33,6.33,0,0,0-1.28-.36,8.26,8.26,0,0,0-1.45-.12,5.42,5.42,0,0,0-2.23.46,5,5,0,0,0-1.73,1.32,6.16,6.16,0,0,0-1.12,2.13,9.41,9.41,0,0,0-.4,2.88,10.39,10.39,0,0,0,.41,3,6.68,6.68,0,0,0,1.2,2.33,5.77,5.77,0,0,0,2,1.54,6.58,6.58,0,0,0,2.66.6c.38,0,.75,0,1.1,0a8.77,8.77,0,0,0,1-.12c.33,0,.66-.13,1-.21s.67-.2,1-.32Z"/><path class="cls-2" d="M191.89,108.51a11.42,11.42,0,0,1-1.29.81,8.77,8.77,0,0,1-1.33.58,8.31,8.31,0,0,1-1.47.34,12.51,12.51,0,0,1-1.69.11,7.65,7.65,0,0,1-2.3-.34,6.7,6.7,0,0,1-3.31-2.39,8.52,8.52,0,0,1-1-1.82,10.87,10.87,0,0,1-.61-2.08,12.67,12.67,0,0,1-.2-2.23,10.29,10.29,0,0,1,.53-3.36,8,8,0,0,1,1.49-2.63,6.76,6.76,0,0,1,5.21-2.32,6,6,0,0,1,2.81.61,5.3,5.3,0,0,1,2,1.75,8.14,8.14,0,0,1,1.14,2.74,16,16,0,0,1,.37,3.61H180.41a8.54,8.54,0,0,0,.5,3,6.6,6.6,0,0,0,1.31,2.18,5.48,5.48,0,0,0,1.86,1.34,5.36,5.36,0,0,0,2.16.45,13.59,13.59,0,0,0,1.44-.08,8.52,8.52,0,0,0,1.4-.3,8.21,8.21,0,0,0,1.39-.58,9.25,9.25,0,0,0,1.42-1Zm-1.43-8a8.39,8.39,0,0,0-.12-1.41A6.62,6.62,0,0,0,190,97.7a6.12,6.12,0,0,0-.6-1.2,4.08,4.08,0,0,0-.87-1,4.24,4.24,0,0,0-1.16-.65,4.18,4.18,0,0,0-1.46-.24,4.77,4.77,0,0,0-1.51.24,5.86,5.86,0,0,0-1.33.65,6,6,0,0,0-1.1,1,6.71,6.71,0,0,0-.84,1.21,6.61,6.61,0,0,0-.53,1.36,5.67,5.67,0,0,0-.17,1.41Z"/><path class="cls-2" d="M208.26,94.64a3.79,3.79,0,0,0-1.86.48,5.8,5.8,0,0,0-1.55,1.24,6.65,6.65,0,0,0-1.06,1.7,4.71,4.71,0,0,0-.39,1.83v10.24h-1.63V93.4h1.63v3a8.36,8.36,0,0,1,1.51-1.83,6.32,6.32,0,0,1,1.46-1,4.54,4.54,0,0,1,1.25-.39,6.87,6.87,0,0,1,.89-.07,7.09,7.09,0,0,1,.77,0,4.25,4.25,0,0,1,.84.23,4.94,4.94,0,0,1,.93.52,6.94,6.94,0,0,1,1,.92l-.93,1.4a6.72,6.72,0,0,0-1.53-1.24A2.8,2.8,0,0,0,208.26,94.64Z"/><path class="cls-2" d="M248.94,110.13H235.45V87.39h13.24v1.5H237.25v8.87h10.91v1.49H237.25v9.4h11.69Z"/><path class="cls-2" d="M268.93,85.4h1.63v24a9.41,9.41,0,0,1-1.27.44c-.47.12-1,.23-1.46.31s-1,.14-1.55.18-1,.06-1.54.06a8.45,8.45,0,0,1-3.38-.64,6.63,6.63,0,0,1-2.47-1.82,7.81,7.81,0,0,1-1.52-2.82,12.34,12.34,0,0,1-.51-3.65,10.39,10.39,0,0,1,.52-3.41,7.66,7.66,0,0,1,1.47-2.6,6.28,6.28,0,0,1,2.24-1.65,6.9,6.9,0,0,1,2.86-.58h.77a10.34,10.34,0,0,1,1.2.14,9.69,9.69,0,0,1,1.45.4,7,7,0,0,1,1.56.83Zm0,11.07a7.65,7.65,0,0,0-1-.78,5.25,5.25,0,0,0-1.13-.58,6.24,6.24,0,0,0-1.27-.36,8.34,8.34,0,0,0-1.45-.12,5.47,5.47,0,0,0-2.24.46,5,5,0,0,0-1.73,1.32A6.34,6.34,0,0,0,259,98.54a9.74,9.74,0,0,0-.39,2.88,10.4,10.4,0,0,0,.4,3,6.87,6.87,0,0,0,1.21,2.33,5.77,5.77,0,0,0,1.95,1.54,6.54,6.54,0,0,0,2.66.6c.38,0,.74,0,1.09,0a8.53,8.53,0,0,0,1-.12c.33,0,.67-.13,1-.21s.67-.2,1-.32Z"/><path class="cls-2" d="M281.48,88.34a1.12,1.12,0,0,1,.1-.48,1.09,1.09,0,0,1,.27-.4,1,1,0,0,1,.4-.27,1.1,1.1,0,0,1,.47-.1,1.12,1.12,0,0,1,.48.1,1.27,1.27,0,0,1,.67.67,1.12,1.12,0,0,1,.1.48,1.15,1.15,0,0,1-.1.48,1.05,1.05,0,0,1-.27.39,1.09,1.09,0,0,1-.4.27,1.12,1.12,0,0,1-.48.1,1.1,1.1,0,0,1-.47-.1,1,1,0,0,1-.4-.27,1.05,1.05,0,0,1-.27-.39A1.15,1.15,0,0,1,281.48,88.34Zm2,21.79h-1.63V93.4h1.63Z"/><path class="cls-2" d="M298.09,93.4h5.31v1.42h-5.31v10.62a5.5,5.5,0,0,0,.2,1.57,2.69,2.69,0,0,0,.59,1.07,2.23,2.23,0,0,0,.94.61,3.89,3.89,0,0,0,1.29.19,6.07,6.07,0,0,0,.81-.06c.29,0,.57-.11.86-.19a4.81,4.81,0,0,0,.81-.27,4.68,4.68,0,0,0,.67-.32v1.48a6.71,6.71,0,0,1-.86.35,8.52,8.52,0,0,1-.92.26,7.84,7.84,0,0,1-.88.16,5.36,5.36,0,0,1-.75.06,5.19,5.19,0,0,1-2-.35,3.85,3.85,0,0,1-1.37-1,4,4,0,0,1-.78-1.47,6.48,6.48,0,0,1-.26-1.86V94.82h-3.7V93.4h3.7V89.1l1.63-1.22Z"/><path class="cls-2" d="M313,88.34a1.29,1.29,0,0,1,.1-.48,1.41,1.41,0,0,1,.27-.4,1.18,1.18,0,0,1,.4-.27,1.2,1.2,0,0,1,1,0,1.18,1.18,0,0,1,.4.27,1.41,1.41,0,0,1,.27.4,1.29,1.29,0,0,1,.1.48,1.33,1.33,0,0,1-.1.48,1.36,1.36,0,0,1-.27.39,1.18,1.18,0,0,1-.4.27,1.2,1.2,0,0,1-1,0,1.18,1.18,0,0,1-.4-.27,1.36,1.36,0,0,1-.27-.39A1.33,1.33,0,0,1,313,88.34Zm2,21.79h-1.63V93.4h1.63Z"/><path class="cls-2" d="M324.94,101.75a8.61,8.61,0,0,1,.3-2.29,8.88,8.88,0,0,1,.86-2,8.36,8.36,0,0,1,1.33-1.74,8.5,8.5,0,0,1,3.73-2.21,8.55,8.55,0,0,1,4.49,0,8.87,8.87,0,0,1,2,.87,8.56,8.56,0,0,1,1.72,1.34,8.67,8.67,0,0,1,1.32,1.74,8.88,8.88,0,0,1,.86,2,8.72,8.72,0,0,1,.3,2.29,8.59,8.59,0,0,1-.3,2.28,9,9,0,0,1-.86,2.06,9.28,9.28,0,0,1-1.32,1.74,8.56,8.56,0,0,1-1.72,1.34,8.87,8.87,0,0,1-2,.87,8.28,8.28,0,0,1-4.49,0,8.58,8.58,0,0,1-5.06-4,9,9,0,0,1-.86-2.06A8.59,8.59,0,0,1,324.94,101.75Zm1.71,0a7.36,7.36,0,0,0,2,5,6.81,6.81,0,0,0,2.14,1.53,6.41,6.41,0,0,0,5.24,0,6.81,6.81,0,0,0,2.14-1.53,7.53,7.53,0,0,0,1.45-2.27,7.35,7.35,0,0,0-1.45-7.81A6.66,6.66,0,0,0,336,95.19a6.41,6.41,0,0,0-5.24,0,6.66,6.66,0,0,0-2.14,1.53A7.15,7.15,0,0,0,327.18,99,7.36,7.36,0,0,0,326.65,101.76Z"/><path class="cls-2" d="M352.71,95.89h0a10.6,10.6,0,0,1,1.32-1.23,7.58,7.58,0,0,1,1.36-.84,6.2,6.2,0,0,1,1.43-.49,7.66,7.66,0,0,1,1.54-.15,6.63,6.63,0,0,1,2.11.32,3.84,3.84,0,0,1,1.6,1,4.72,4.72,0,0,1,1,1.84,9.34,9.34,0,0,1,.35,2.73v11h-1.63V99.28a7.81,7.81,0,0,0-.21-1.87A4.16,4.16,0,0,0,361,96a3.05,3.05,0,0,0-1.14-1,3.79,3.79,0,0,0-1.68-.35,6.25,6.25,0,0,0-1.34.15,6.33,6.33,0,0,0-1.36.48,7.79,7.79,0,0,0-1.37.87,10.29,10.29,0,0,0-1.38,1.3v12.7h-1.64V93.39h1.64Z"/><path class="cls-2" d="M431.33,110.13V87.39h12.46v1.5H433.12v8.87h10v1.49h-10v10.88Z"/><path class="cls-2" d="M453.71,88.34a1.12,1.12,0,0,1,.1-.48,1.41,1.41,0,0,1,.27-.4,1.09,1.09,0,0,1,.4-.27,1.2,1.2,0,0,1,1,0,1.05,1.05,0,0,1,.39.27,1.09,1.09,0,0,1,.27.4,1.12,1.12,0,0,1,.1.48,1.15,1.15,0,0,1-.1.48,1.33,1.33,0,0,1-.66.66,1.2,1.2,0,0,1-1,0,1.09,1.09,0,0,1-.4-.27,1.36,1.36,0,0,1-.27-.39A1.15,1.15,0,0,1,453.71,88.34Zm2,21.79h-1.63V93.4h1.63Z"/><path class="cls-2" d="M473.59,94.64a3.85,3.85,0,0,0-1.86.48,5.76,5.76,0,0,0-1.54,1.24,6.14,6.14,0,0,0-1.06,1.7,4.71,4.71,0,0,0-.39,1.83v10.24h-1.63V93.4h1.63v3a8.07,8.07,0,0,1,1.5-1.83,6.15,6.15,0,0,1,1.47-1,4.54,4.54,0,0,1,1.25-.39,6.74,6.74,0,0,1,.89-.07,6.91,6.91,0,0,1,.76,0,4.33,4.33,0,0,1,.85.23,4.94,4.94,0,0,1,.93.52,8.08,8.08,0,0,1,1,.92l-.94,1.4A6.72,6.72,0,0,0,475,95.06,2.74,2.74,0,0,0,473.59,94.64Z"/><path class="cls-2" d="M498.1,108.51a11.42,11.42,0,0,1-1.29.81,8.77,8.77,0,0,1-1.33.58,8.31,8.31,0,0,1-1.47.34,12.51,12.51,0,0,1-1.69.11A7.65,7.65,0,0,1,490,110a6.7,6.7,0,0,1-3.31-2.39,8.52,8.52,0,0,1-1-1.82,10.87,10.87,0,0,1-.61-2.08,12.67,12.67,0,0,1-.2-2.23,10.29,10.29,0,0,1,.53-3.36,8,8,0,0,1,1.49-2.63,6.76,6.76,0,0,1,5.21-2.32,6,6,0,0,1,2.81.61,5.3,5.3,0,0,1,2,1.75A8.14,8.14,0,0,1,498,98.28a16,16,0,0,1,.37,3.61H486.62a8.54,8.54,0,0,0,.5,3,6.6,6.6,0,0,0,1.31,2.18,5.48,5.48,0,0,0,1.86,1.34,5.36,5.36,0,0,0,2.16.45,13.59,13.59,0,0,0,1.44-.08,8.52,8.52,0,0,0,1.4-.3,8.21,8.21,0,0,0,1.39-.58,9.25,9.25,0,0,0,1.42-1Zm-1.43-8a8.39,8.39,0,0,0-.12-1.41,6.62,6.62,0,0,0-.35-1.36,6.12,6.12,0,0,0-.6-1.2,4.08,4.08,0,0,0-.87-1,4.24,4.24,0,0,0-1.16-.65,4.18,4.18,0,0,0-1.46-.24,4.77,4.77,0,0,0-1.51.24,5.86,5.86,0,0,0-1.33.65,6,6,0,0,0-1.1,1,6.71,6.71,0,0,0-.84,1.21,6.61,6.61,0,0,0-.53,1.36,5.67,5.67,0,0,0-.17,1.41Z"/><path class="cls-2" d="M624.39,110.13H610.9V87.39h13.24v1.5H612.7v8.87h10.91v1.49H612.7v9.4h11.69Z"/><path class="cls-2" d="M636.24,110.12h-1.63V85.41h1.63Z"/><path class="cls-2" d="M659.79,108.51a11.42,11.42,0,0,1-1.29.81,8.77,8.77,0,0,1-1.33.58,8.31,8.31,0,0,1-1.47.34,12.51,12.51,0,0,1-1.69.11,7.54,7.54,0,0,1-2.29-.34,6.72,6.72,0,0,1-1.87-1,6.83,6.83,0,0,1-1.45-1.44,8.52,8.52,0,0,1-1-1.82,10.87,10.87,0,0,1-.61-2.08,12.67,12.67,0,0,1-.2-2.23,10.29,10.29,0,0,1,.53-3.36,8,8,0,0,1,1.49-2.63,6.78,6.78,0,0,1,2.29-1.71,6.86,6.86,0,0,1,2.93-.61,6,6,0,0,1,2.8.61,5.3,5.3,0,0,1,2,1.75,8.14,8.14,0,0,1,1.14,2.74,16,16,0,0,1,.37,3.61H648.31a8.54,8.54,0,0,0,.5,3,6.6,6.6,0,0,0,1.31,2.18,5.58,5.58,0,0,0,1.86,1.34,5.36,5.36,0,0,0,2.16.45,13.59,13.59,0,0,0,1.44-.08,8.52,8.52,0,0,0,1.4-.3,8.21,8.21,0,0,0,1.39-.58,9.25,9.25,0,0,0,1.42-1Zm-1.43-8a8.39,8.39,0,0,0-.12-1.41,6.62,6.62,0,0,0-.35-1.36,6.12,6.12,0,0,0-.6-1.2,4.08,4.08,0,0,0-.87-1,4.24,4.24,0,0,0-1.16-.65,4.16,4.16,0,0,0-1.45-.24,4.79,4.79,0,0,0-1.52.24,5.59,5.59,0,0,0-1.32.65,5.74,5.74,0,0,0-1.11,1,7.26,7.26,0,0,0-.84,1.21,6.06,6.06,0,0,0-.52,1.36,5.25,5.25,0,0,0-.18,1.41Z"/><path class="cls-2" d="M671.3,93.39v2.54a10.81,10.81,0,0,1,1.6-1.45,7.58,7.58,0,0,1,1.45-.83,4.64,4.64,0,0,1,1.27-.38,7.12,7.12,0,0,1,1.07-.09,6.66,6.66,0,0,1,1.51.16,4.36,4.36,0,0,1,1.31.51,4.48,4.48,0,0,1,1.1.91,5.9,5.9,0,0,1,.86,1.35,13,13,0,0,1,1.61-1.53,7,7,0,0,1,1.46-.88,5,5,0,0,1,1.4-.41,9.5,9.5,0,0,1,1.42-.1,5.12,5.12,0,0,1,2.13.42,4.38,4.38,0,0,1,1.55,1.2,5.47,5.47,0,0,1,1,1.88,8.84,8.84,0,0,1,.32,2.44v11h-1.63V99.28a7.45,7.45,0,0,0-.22-1.9,4.12,4.12,0,0,0-.69-1.46,3,3,0,0,0-1.2-1,4.3,4.3,0,0,0-1.77-.34,4.76,4.76,0,0,0-1.43.21,5.16,5.16,0,0,0-1.27.57,7,7,0,0,0-1.17.89c-.38.34-.75.72-1.13,1.13v12.7h-1.63V99.24a7,7,0,0,0-.27-2,3.81,3.81,0,0,0-.77-1.44,2.94,2.94,0,0,0-1.19-.84,4,4,0,0,0-1.54-.28,5.62,5.62,0,0,0-2.63.69,8.35,8.35,0,0,0-2.48,2.1v12.71h-1.63V93.39Z"/><path class="cls-2" d="M715.14,108.51a13.54,13.54,0,0,1-1.29.81,8.88,8.88,0,0,1-1.34.58,8.41,8.41,0,0,1-1.46.34,12.63,12.63,0,0,1-1.69.11,7.56,7.56,0,0,1-2.3-.34,6.72,6.72,0,0,1-1.87-1,7.33,7.33,0,0,1-1.45-1.44,8.52,8.52,0,0,1-1-1.82,10.85,10.85,0,0,1-.6-2.08,11.79,11.79,0,0,1-.21-2.23,10.29,10.29,0,0,1,.53-3.36,8.15,8.15,0,0,1,1.49-2.63,6.78,6.78,0,0,1,2.29-1.71,6.89,6.89,0,0,1,2.93-.61,6,6,0,0,1,2.81.61,5.2,5.2,0,0,1,1.95,1.75,7.75,7.75,0,0,1,1.14,2.74,16,16,0,0,1,.37,3.61H703.66a8.54,8.54,0,0,0,.49,3,6.6,6.6,0,0,0,1.31,2.18,5.58,5.58,0,0,0,1.86,1.34,5.43,5.43,0,0,0,2.16.45,13.59,13.59,0,0,0,1.44-.08,8.52,8.52,0,0,0,1.4-.3,7.88,7.88,0,0,0,1.39-.58,9.31,9.31,0,0,0,1.43-1Zm-1.44-8a9.57,9.57,0,0,0-.11-1.41,7.34,7.34,0,0,0-.36-1.36,5.18,5.18,0,0,0-.6-1.2,4,4,0,0,0-3.48-1.87,4.73,4.73,0,0,0-1.51.24,5.66,5.66,0,0,0-1.33.65,5.4,5.4,0,0,0-1.1,1,6.24,6.24,0,0,0-.84,1.21,6.09,6.09,0,0,0-.53,1.36,5.23,5.23,0,0,0-.17,1.41Z"/><path class="cls-2" d="M726.65,95.89h0A10.6,10.6,0,0,1,728,94.66a8,8,0,0,1,1.36-.84,6.2,6.2,0,0,1,1.43-.49,7.66,7.66,0,0,1,1.54-.15,6.63,6.63,0,0,1,2.11.32,3.84,3.84,0,0,1,1.6,1,4.6,4.6,0,0,1,1,1.84,9.34,9.34,0,0,1,.35,2.73v11h-1.63V99.28a7.81,7.81,0,0,0-.21-1.87,4.16,4.16,0,0,0-.66-1.46,3,3,0,0,0-1.14-1,3.77,3.77,0,0,0-1.67-.35,6.12,6.12,0,0,0-1.34.15,6.22,6.22,0,0,0-1.37.48,7.79,7.79,0,0,0-1.37.87,10.29,10.29,0,0,0-1.38,1.3v12.7H725V93.39h1.64Z"/><path class="cls-2" d="M751.33,93.4h5.31v1.42h-5.31v10.62a5.5,5.5,0,0,0,.2,1.57,2.69,2.69,0,0,0,.59,1.07,2.29,2.29,0,0,0,.94.61,3.89,3.89,0,0,0,1.29.19,6,6,0,0,0,.81-.06c.29,0,.57-.11.86-.19a4.81,4.81,0,0,0,.81-.27,4.68,4.68,0,0,0,.67-.32v1.48a6.71,6.71,0,0,1-.86.35,8.52,8.52,0,0,1-.92.26,7.84,7.84,0,0,1-.88.16,5.36,5.36,0,0,1-.75.06,5.19,5.19,0,0,1-2-.35,3.85,3.85,0,0,1-1.37-1,4,4,0,0,1-.78-1.47,6.48,6.48,0,0,1-.26-1.86V94.82H746V93.4h3.7V89.1l1.63-1.22Z"/><path class="cls-2" d="M839.85,110.67h-.54l-8.5-22.9h2.05l6.83,19,7.78-19h1.22l7.9,19,6.77-19h2l-8.49,22.9h-.53l-8.3-20Z"/><path class="cls-2" d="M889.84,106.63l4.75-12.85h1.9L890,110.51h-.23l-5.36-14-5.34,14h-.22l-6.61-16.73h1.89l4.79,12.84,4.87-12.84H885Z"/><path class="cls-2" d="M905.69,88.72a1.29,1.29,0,0,1,.1-.48,1.27,1.27,0,0,1,.67-.67,1.2,1.2,0,0,1,1,0,1.36,1.36,0,0,1,.39.27,1.38,1.38,0,0,1,.28.4,1.33,1.33,0,0,1,0,1,1.38,1.38,0,0,1-.28.4,1.36,1.36,0,0,1-.39.27,1.2,1.2,0,0,1-1,0,1.27,1.27,0,0,1-.67-.67A1.29,1.29,0,0,1,905.69,88.72Zm2,21.79H906.1V93.78h1.63Z"/><path class="cls-2" d="M920.72,96.28h0a10.65,10.65,0,0,1,1.33-1.23,7,7,0,0,1,1.35-.85,6.34,6.34,0,0,1,1.43-.48,7,7,0,0,1,1.54-.16,6.36,6.36,0,0,1,2.11.33,4,4,0,0,1,1.61,1,4.72,4.72,0,0,1,1,1.84,9.08,9.08,0,0,1,.35,2.74v11h-1.63V99.66a7.73,7.73,0,0,0-.21-1.86,4.3,4.3,0,0,0-.65-1.47,3.07,3.07,0,0,0-1.15-1,3.61,3.61,0,0,0-1.67-.35,6.14,6.14,0,0,0-2.7.63,8,8,0,0,0-1.38.86,11.1,11.1,0,0,0-1.38,1.31v12.69h-1.63V93.77h1.63Z"/><path class="cls-2" d="M970.48,110.51H957V87.77h13.24v1.5H958.79v8.88H969.7v1.49H958.79V109h11.69Z"/><path class="cls-2" d="M982.33,110.5H980.7V85.8h1.63Z"/><path class="cls-2" d="M1005.89,108.89a13.54,13.54,0,0,1-1.29.81,8,8,0,0,1-1.34.58,7.51,7.51,0,0,1-1.47.34,10.94,10.94,0,0,1-1.68.11,7.26,7.26,0,0,1-2.3-.34,6.46,6.46,0,0,1-1.87-1,6.82,6.82,0,0,1-1.45-1.44,8.28,8.28,0,0,1-1-1.82,10.75,10.75,0,0,1-.6-2.07,11.79,11.79,0,0,1-.21-2.23,10.29,10.29,0,0,1,.53-3.36,7.94,7.94,0,0,1,1.49-2.63A6.68,6.68,0,0,1,997,94.17a7,7,0,0,1,2.93-.61,6.12,6.12,0,0,1,2.8.61,5.23,5.23,0,0,1,2,1.75,7.88,7.88,0,0,1,1.14,2.75,15.9,15.9,0,0,1,.37,3.61H994.41a8.45,8.45,0,0,0,.49,3,6.75,6.75,0,0,0,1.31,2.19,5.73,5.73,0,0,0,1.86,1.34,5.43,5.43,0,0,0,2.16.45,11.36,11.36,0,0,0,1.44-.09,7.57,7.57,0,0,0,1.4-.29,7.94,7.94,0,0,0,1.39-.59,9.21,9.21,0,0,0,1.43-.94Zm-1.44-8a9.57,9.57,0,0,0-.11-1.41,7.44,7.44,0,0,0-.36-1.35,5.46,5.46,0,0,0-.6-1.21,4,4,0,0,0-.87-1,3.66,3.66,0,0,0-1.16-.65A4.12,4.12,0,0,0,999.9,95a4.68,4.68,0,0,0-1.51.24,5,5,0,0,0-1.33.65,5.35,5.35,0,0,0-1.1,1,6.31,6.31,0,0,0-.84,1.22,6,6,0,0,0-.53,1.35,5.23,5.23,0,0,0-.17,1.41Z"/><path class="cls-2" d="M1017.4,93.77v2.55a10.25,10.25,0,0,1,1.59-1.45,8.25,8.25,0,0,1,1.45-.84,5.61,5.61,0,0,1,1.27-.38,6.85,6.85,0,0,1,2.58.07,4.54,4.54,0,0,1,1.31.52,4.11,4.11,0,0,1,1.1.91,5.9,5.9,0,0,1,.86,1.35,12.28,12.28,0,0,1,1.61-1.53,7.06,7.06,0,0,1,1.46-.89,5.84,5.84,0,0,1,1.4-.41,11,11,0,0,1,1.42-.1,5.13,5.13,0,0,1,2.13.43,4.19,4.19,0,0,1,1.56,1.2,5.37,5.37,0,0,1,.95,1.88,8.42,8.42,0,0,1,.33,2.44v11h-1.64V99.66a7.43,7.43,0,0,0-.22-1.89,3.85,3.85,0,0,0-.69-1.47,3.23,3.23,0,0,0-1.2-1,4.3,4.3,0,0,0-1.77-.33,5.09,5.09,0,0,0-1.43.2,5.59,5.59,0,0,0-1.27.58,7.78,7.78,0,0,0-1.17.88c-.37.35-.75.73-1.12,1.14v12.69h-1.64V99.63a6.93,6.93,0,0,0-.27-2,3.94,3.94,0,0,0-.76-1.44,3.14,3.14,0,0,0-1.19-.85,4.27,4.27,0,0,0-1.55-.27,5.58,5.58,0,0,0-2.62.69,8.23,8.23,0,0,0-2.48,2.1v12.7h-1.64V93.77Z"/><path class="cls-2" d="M1061.23,108.89a11.42,11.42,0,0,1-1.29.81,8,8,0,0,1-1.34.58,7.58,7.58,0,0,1-1.46.34,11.16,11.16,0,0,1-1.69.11,7.3,7.3,0,0,1-2.3-.34,6.58,6.58,0,0,1-3.31-2.39,8.28,8.28,0,0,1-1-1.82,10.77,10.77,0,0,1-.61-2.07,11.78,11.78,0,0,1-.2-2.23,10,10,0,0,1,.53-3.36,7.93,7.93,0,0,1,1.48-2.63,6.78,6.78,0,0,1,2.29-1.72,7.08,7.08,0,0,1,2.93-.61,6.16,6.16,0,0,1,2.81.61,5.39,5.39,0,0,1,2,1.75,8.28,8.28,0,0,1,1.14,2.75,16.49,16.49,0,0,1,.37,3.61h-11.77a8.22,8.22,0,0,0,.5,3,6.58,6.58,0,0,0,1.31,2.19,5.52,5.52,0,0,0,1.86,1.34,5.35,5.35,0,0,0,2.15.45,11.52,11.52,0,0,0,1.45-.09,7.75,7.75,0,0,0,1.4-.29,8.63,8.63,0,0,0,1.39-.59,9.65,9.65,0,0,0,1.42-.94Zm-1.43-8a8.39,8.39,0,0,0-.12-1.41,7.43,7.43,0,0,0-.35-1.35,6.49,6.49,0,0,0-.6-1.21,4.3,4.3,0,0,0-.88-1,3.61,3.61,0,0,0-1.15-.65,4.22,4.22,0,0,0-1.46-.24,4.73,4.73,0,0,0-1.51.24,5,5,0,0,0-1.33.65,5.63,5.63,0,0,0-1.1,1,6.31,6.31,0,0,0-.84,1.22,6,6,0,0,0-.53,1.35,5.23,5.23,0,0,0-.17,1.41Z"/><path class="cls-2" d="M1072.74,96.28h0a10.65,10.65,0,0,1,1.33-1.23,7,7,0,0,1,1.35-.85,6.34,6.34,0,0,1,1.43-.48,7,7,0,0,1,1.54-.16,6.36,6.36,0,0,1,2.11.33,4,4,0,0,1,1.61,1,4.72,4.72,0,0,1,1,1.84,9.08,9.08,0,0,1,.35,2.74v11h-1.63V99.66a7.73,7.73,0,0,0-.21-1.86,4.3,4.3,0,0,0-.65-1.47,3.07,3.07,0,0,0-1.15-1,3.61,3.61,0,0,0-1.67-.35,6.14,6.14,0,0,0-2.7.63,8,8,0,0,0-1.38.86,11.1,11.1,0,0,0-1.38,1.31v12.69h-1.63V93.77h1.63Z"/><path class="cls-2" d="M1097.43,93.78h5.3v1.43h-5.3v10.62a5.21,5.21,0,0,0,.2,1.57,2.62,2.62,0,0,0,.58,1.07,2.27,2.27,0,0,0,.94.6,3.88,3.88,0,0,0,1.29.2,4.75,4.75,0,0,0,.81-.07,6.25,6.25,0,0,0,.86-.18c.29-.08.56-.17.82-.27a5.09,5.09,0,0,0,.66-.32v1.48a6.17,6.17,0,0,1-.86.35c-.31.1-.61.19-.92.26s-.6.12-.88.16a5.23,5.23,0,0,1-.75,0,5,5,0,0,1-2-.35,3.59,3.59,0,0,1-1.36-1,4,4,0,0,1-.79-1.48,6.36,6.36,0,0,1-.26-1.85V95.21h-3.7V93.78h3.7v-4.3l1.64-1.21Z"/><path class="cls-2" d="M1144,109.44a11.5,11.5,0,0,1-3.23,1.13,19.19,19.19,0,0,1-3.67.33,12.11,12.11,0,0,1-3.58-.49,10.37,10.37,0,0,1-2.85-1.32,9.68,9.68,0,0,1-2.16-2,11.08,11.08,0,0,1-1.5-2.42,12.8,12.8,0,0,1-.87-2.69,13.68,13.68,0,0,1-.28-2.76,14.45,14.45,0,0,1,.32-3,12.62,12.62,0,0,1,1-2.79,11.25,11.25,0,0,1,1.62-2.44,9.84,9.84,0,0,1,2.27-1.93,10.87,10.87,0,0,1,2.92-1.26,13.39,13.39,0,0,1,3.58-.45,18.35,18.35,0,0,1,3.32.28,11.87,11.87,0,0,1,2.85.89V90.4a10.73,10.73,0,0,0-2.74-1,14.23,14.23,0,0,0-3.21-.35,11.67,11.67,0,0,0-3.06.37,9.22,9.22,0,0,0-2.48,1,7.83,7.83,0,0,0-1.92,1.59,9.17,9.17,0,0,0-1.37,2,10.51,10.51,0,0,0-.81,2.41,12.81,12.81,0,0,0-.27,2.65,13.17,13.17,0,0,0,.28,2.71,10,10,0,0,0,.83,2.42,9.3,9.3,0,0,0,1.36,2,8.24,8.24,0,0,0,1.9,1.57,9.34,9.34,0,0,0,2.41,1,11.15,11.15,0,0,0,2.91.36,11.45,11.45,0,0,0,1.85-.15,13.54,13.54,0,0,0,1.75-.38,15.82,15.82,0,0,0,1.56-.54,13.32,13.32,0,0,0,1.3-.61Z"/><path class="cls-2" d="M1152.31,102.13a8.73,8.73,0,0,1,.31-2.29,8.52,8.52,0,0,1,5.91-6,8.09,8.09,0,0,1,2.25-.31,7.92,7.92,0,0,1,2.24.31,8.91,8.91,0,0,1,2,.86,8.27,8.27,0,0,1,1.71,1.35,8.57,8.57,0,0,1,1.33,1.73,8.93,8.93,0,0,1,.85,2.06,8.85,8.85,0,0,1,0,4.57,8.86,8.86,0,0,1-.85,2,8.36,8.36,0,0,1-1.33,1.74,8,8,0,0,1-1.71,1.35,8.94,8.94,0,0,1-2,.87,8.29,8.29,0,0,1-2.24.3,8.48,8.48,0,0,1-2.25-.3,8.61,8.61,0,0,1-2-.87,8.26,8.26,0,0,1-1.72-1.35,8.52,8.52,0,0,1-2.18-3.79A8.61,8.61,0,0,1,1152.31,102.13Zm1.71,0a7.36,7.36,0,0,0,.53,2.78,7.52,7.52,0,0,0,1.44,2.26,6.84,6.84,0,0,0,2.14,1.54,6.43,6.43,0,0,0,5.25,0,7,7,0,0,0,2.14-1.54,7.15,7.15,0,0,0,1.44-2.26,7.42,7.42,0,0,0-1.44-7.82,6.9,6.9,0,0,0-2.14-1.52,6.43,6.43,0,0,0-5.25,0A6.78,6.78,0,0,0,1156,97.1a7.7,7.7,0,0,0-1.44,2.27A7.3,7.3,0,0,0,1154,102.14Z"/><path class="cls-2" d="M1180.82,110.5h-1.63V85.8h1.63Z"/><path class="cls-2" d="M1194.62,110.5H1193V85.8h1.63Z"/><path class="cls-2" d="M1218.18,108.89a12.49,12.49,0,0,1-1.3.81,7.87,7.87,0,0,1-1.33.58,7.51,7.51,0,0,1-1.47.34,10.94,10.94,0,0,1-1.68.11,7.26,7.26,0,0,1-2.3-.34,6.46,6.46,0,0,1-1.87-1,6.6,6.6,0,0,1-1.45-1.44,8.28,8.28,0,0,1-1-1.82,10.08,10.08,0,0,1-.6-2.07,11.79,11.79,0,0,1-.21-2.23,10.29,10.29,0,0,1,.53-3.36,7.77,7.77,0,0,1,1.49-2.63,6.68,6.68,0,0,1,2.29-1.72,7,7,0,0,1,2.93-.61,6.12,6.12,0,0,1,2.8.61,5.31,5.31,0,0,1,2,1.75,8.08,8.08,0,0,1,1.14,2.75,15.9,15.9,0,0,1,.37,3.61h-11.77a8.44,8.44,0,0,0,.5,3,6.75,6.75,0,0,0,1.31,2.19,5.73,5.73,0,0,0,1.86,1.34,5.4,5.4,0,0,0,2.16.45,11.36,11.36,0,0,0,1.44-.09,7.57,7.57,0,0,0,1.4-.29,7.94,7.94,0,0,0,1.39-.59,9.21,9.21,0,0,0,1.43-.94Zm-1.44-8a8.39,8.39,0,0,0-.12-1.41,6.69,6.69,0,0,0-.35-1.35,6.49,6.49,0,0,0-.6-1.21,4,4,0,0,0-.87-1,3.66,3.66,0,0,0-1.16-.65,4.16,4.16,0,0,0-1.45-.24,4.68,4.68,0,0,0-1.51.24,4.84,4.84,0,0,0-1.33.65,5.69,5.69,0,0,0-1.11,1,6.73,6.73,0,0,0-.83,1.22,5.57,5.57,0,0,0-.53,1.35,5.25,5.25,0,0,0-.18,1.41Z"/><path class="cls-2" d="M1238.9,96.26l-.71-.4a8.12,8.12,0,0,0-.93-.4,7.74,7.74,0,0,0-2.58-.44,5.15,5.15,0,0,0-1.63.26,5.22,5.22,0,0,0-1.41.72,5.58,5.58,0,0,0-1.16,1.12,6.84,6.84,0,0,0-.88,1.45,7.88,7.88,0,0,0-.56,1.7,9.07,9.07,0,0,0-.19,1.9,8.34,8.34,0,0,0,.44,2.75,6.74,6.74,0,0,0,1.26,2.26,6.16,6.16,0,0,0,2,1.54,5.88,5.88,0,0,0,2.58.56,8.49,8.49,0,0,0,1.17-.08,6.84,6.84,0,0,0,1-.22,8.8,8.8,0,0,0,1-.35c.32-.13.65-.29,1-.46v1.55a7.34,7.34,0,0,1-.89.44,5.68,5.68,0,0,1-1,.31,9,9,0,0,1-1.14.2c-.41,0-.88.06-1.39.06a7.58,7.58,0,0,1-3.21-.65,7.48,7.48,0,0,1-2.46-1.78,7.81,7.81,0,0,1-1.56-2.63,9.26,9.26,0,0,1-.56-3.21,11.12,11.12,0,0,1,.58-3.67,8.43,8.43,0,0,1,1.58-2.81,7.13,7.13,0,0,1,2.4-1.79,7.22,7.22,0,0,1,3-.63,9,9,0,0,1,1.3.09,7.39,7.39,0,0,1,1.12.23,7.85,7.85,0,0,1,1,.34,7.14,7.14,0,0,1,.83.42Z"/><path class="cls-2" d="M1252.09,93.78h5.3v1.43h-5.3v10.62a5.55,5.55,0,0,0,.2,1.57,2.62,2.62,0,0,0,.58,1.07,2.24,2.24,0,0,0,1,.6,3.82,3.82,0,0,0,1.28.2,4.75,4.75,0,0,0,.81-.07,6.72,6.72,0,0,0,.87-.18q.42-.12.81-.27a5.09,5.09,0,0,0,.66-.32v1.48a6.17,6.17,0,0,1-.86.35c-.3.1-.61.19-.92.26s-.59.12-.87.16a5.23,5.23,0,0,1-.75,0,4.94,4.94,0,0,1-2-.35,3.63,3.63,0,0,1-1.37-1,4,4,0,0,1-.79-1.48,6.37,6.37,0,0,1-.25-1.85V95.21h-3.71V93.78h3.71v-4.3l1.63-1.21Z"/><path class="cls-2" d="M1267,88.72a1.12,1.12,0,0,1,.1-.48,1.18,1.18,0,0,1,.27-.4,1.26,1.26,0,0,1,.87-.37,1.38,1.38,0,0,1,.49.1,1.36,1.36,0,0,1,.39.27,1.18,1.18,0,0,1,.27.4,1.2,1.2,0,0,1,0,1,1.18,1.18,0,0,1-.27.4,1.36,1.36,0,0,1-.39.27,1.38,1.38,0,0,1-.49.1,1.26,1.26,0,0,1-.87-.37,1.18,1.18,0,0,1-.27-.4A1.12,1.12,0,0,1,1267,88.72Zm2,21.79h-1.63V93.78h1.63Z"/><path class="cls-2" d="M1278.94,102.13a8.72,8.72,0,0,1,.3-2.29,9,9,0,0,1,.85-2,8.49,8.49,0,0,1,5.07-3.94,8,8,0,0,1,2.25-.31,7.9,7.9,0,0,1,2.23.31,8.91,8.91,0,0,1,2,.86,8.27,8.27,0,0,1,1.71,1.35,8.57,8.57,0,0,1,1.33,1.73,8.93,8.93,0,0,1,.85,2.06,8.85,8.85,0,0,1,0,4.57,8.86,8.86,0,0,1-.85,2,8.36,8.36,0,0,1-1.33,1.74,8,8,0,0,1-1.71,1.35,8.94,8.94,0,0,1-2,.87,8.28,8.28,0,0,1-2.23.3,8.37,8.37,0,0,1-2.25-.3,8.68,8.68,0,0,1-2-.87,8.26,8.26,0,0,1-1.72-1.35,8.36,8.36,0,0,1-1.33-1.74,8.86,8.86,0,0,1-.85-2A8.61,8.61,0,0,1,1278.94,102.13Zm1.71,0a7.35,7.35,0,0,0,.52,2.78,7.52,7.52,0,0,0,1.44,2.26,6.84,6.84,0,0,0,2.14,1.54,6.43,6.43,0,0,0,5.25,0,7,7,0,0,0,2.14-1.54,7.46,7.46,0,0,0,1.44-7.81,7.32,7.32,0,0,0-1.44-2.27,6.9,6.9,0,0,0-2.14-1.52,6.43,6.43,0,0,0-5.25,0,6.78,6.78,0,0,0-2.14,1.52,7.7,7.7,0,0,0-1.44,2.27A7.3,7.3,0,0,0,1280.65,102.14Z"/><path class="cls-2" d="M1306.7,96.28h0a11.39,11.39,0,0,1,1.33-1.23,6.82,6.82,0,0,1,1.36-.85,6.1,6.1,0,0,1,1.42-.48,7,7,0,0,1,1.54-.16,6.36,6.36,0,0,1,2.11.33,4,4,0,0,1,1.61,1,4.72,4.72,0,0,1,1,1.84,9.06,9.06,0,0,1,.36,2.74v11h-1.64V99.66a7.73,7.73,0,0,0-.21-1.86,4.3,4.3,0,0,0-.65-1.47,3.07,3.07,0,0,0-1.15-1,3.61,3.61,0,0,0-1.67-.35,6.14,6.14,0,0,0-2.7.63,7.57,7.57,0,0,0-1.37.86,10.49,10.49,0,0,0-1.39,1.31v12.69h-1.63V93.77h1.63Z"/><path class="cls-1" d="M572.13,106.4a.31.31,0,0,1-.13,0l-4.08-1.47a.39.39,0,0,1-.25-.35.31.31,0,0,1,0-.13.37.37,0,0,1,.47-.22l4.08,1.48a.38.38,0,0,1,.25.35.5.5,0,0,1,0,.12A.39.39,0,0,1,572.13,106.4Z"/><path class="cls-1" d="M571.29,110.13a.47.47,0,0,1-.17,0l-2-1.06a.39.39,0,0,1-.19-.33.35.35,0,0,1,0-.17.38.38,0,0,1,.5-.16l2,1.06a.38.38,0,0,1,.2.33.35.35,0,0,1,0,.17A.38.38,0,0,1,571.29,110.13Z"/><path class="cls-1" d="M568.19,94.72a.35.35,0,0,1-.34-.24.37.37,0,0,1,.22-.48l3.82-1.38a.37.37,0,0,1,.47.22.38.38,0,0,1-.22.48l-3.82,1.38Z"/><path class="cls-1" d="M569.16,90.66a.38.38,0,0,1-.33-.2.47.47,0,0,1,0-.17A.35.35,0,0,1,569,90l2-1.06a.36.36,0,0,1,.5.15.39.39,0,0,1,0,.18.36.36,0,0,1-.19.32l-2,1.06A.33.33,0,0,1,569.16,90.66Z"/><path class="cls-1" d="M571.72,97.29a.37.37,0,0,1-.36-.33.08.08,0,0,1,0,0,.37.37,0,0,1,.33-.37l5.38-.57a.38.38,0,0,1,.41.33v0a.37.37,0,0,1-.33.36l-5.38.58Z"/><path class="cls-1" d="M568.79,97.59a.37.37,0,0,1-.37-.33.38.38,0,0,1,.33-.41l1.61-.17a.37.37,0,0,1,.07.74l-1.6.17Z"/><path class="cls-1" d="M570.51,102.31h0l-1.62-.17a.37.37,0,0,1-.33-.41.36.36,0,0,1,.41-.32l1.62.17a.37.37,0,0,1,0,.73Z"/><path class="cls-1" d="M577.21,103h0l-5.37-.58a.37.37,0,0,1-.33-.36v0a.37.37,0,0,1,.41-.33l5.37.57a.37.37,0,0,1,.33.37v0A.37.37,0,0,1,577.21,103Z"/><path class="cls-1" d="M580.1,100H569.21a.37.37,0,1,1,0-.73H580.1a.37.37,0,1,1,0,.73Z"/><path class="cls-1" d="M573.55,92.77a.35.35,0,0,1-.34-.24.28.28,0,0,1,0-.13.36.36,0,0,1,.25-.34l7-2.54a.37.37,0,0,1,.47.22.32.32,0,0,1,0,.13.38.38,0,0,1-.24.35l-7,2.53A.27.27,0,0,1,573.55,92.77Z"/><path class="cls-1" d="M572.09,89a.36.36,0,0,1-.32-.18.41.41,0,0,1,0-.19.4.4,0,0,1,.18-.32l1.7-1a.37.37,0,0,1,.5.13.32.32,0,0,1,0,.19.37.37,0,0,1-.18.32l-1.7,1A.29.29,0,0,1,572.09,89Z"/><path class="cls-1" d="M574.94,80.38a.36.36,0,0,1-.27-.12.35.35,0,0,1-.1-.25.36.36,0,0,1,.12-.27l3.31-3a.37.37,0,0,1,.62.28.36.36,0,0,1-.12.27l-3.31,3A.38.38,0,0,1,574.94,80.38Z"/><path class="cls-1" d="M569,85.73a.38.38,0,0,1-.28-.12.38.38,0,0,1-.09-.25.36.36,0,0,1,.12-.27l5.09-4.51a.38.38,0,0,1,.52,0,.38.38,0,0,1,.09.25.39.39,0,0,1-.12.28l-5.09,4.5A.38.38,0,0,1,569,85.73Z"/><path class="cls-1" d="M566.93,91.86a.35.35,0,0,1-.33-.2.33.33,0,0,1,0-.17.38.38,0,0,1,.2-.33l1.18-.61a.36.36,0,0,1,.5.15.38.38,0,0,1,0,.17.35.35,0,0,1-.2.33l-1.18.62A.38.38,0,0,1,566.93,91.86Z"/><path class="cls-1" d="M565.25,89.13A.36.36,0,0,1,565,89a.35.35,0,0,1-.1-.25.36.36,0,0,1,.12-.27L567.78,86a.38.38,0,0,1,.52,0,.38.38,0,0,1,.09.25.39.39,0,0,1-.12.28L565.5,89A.38.38,0,0,1,565.25,89.13Z"/><path class="cls-1" d="M563.38,78.77a.35.35,0,0,1-.14,0,.38.38,0,0,1-.23-.35.39.39,0,0,1,0-.14l.77-1.83a.38.38,0,0,1,.49-.2.37.37,0,0,1,.22.35.39.39,0,0,1,0,.14l-.77,1.83A.37.37,0,0,1,563.38,78.77Z"/><path class="cls-1" d="M563,86.79a.41.41,0,0,1-.24-.08.37.37,0,0,1-.13-.29.34.34,0,0,1,.08-.23L564,84.62a.37.37,0,0,1,.66.24.4.4,0,0,1-.08.23l-1.28,1.56A.37.37,0,0,1,563,86.79Z"/><path class="cls-1" d="M547.24,85.45a.39.39,0,0,1-.34-.21l-2.69-5.85a.28.28,0,0,1,0-.15.37.37,0,0,1,.71-.15l2.7,5.84a.4.4,0,0,1,0,.15.37.37,0,0,1-.22.34A.4.4,0,0,1,547.24,85.45Z"/><path class="cls-1" d="M544.16,78.77a.37.37,0,0,1-.34-.23l-.77-1.83a.39.39,0,0,1,0-.14.37.37,0,0,1,.22-.35.38.38,0,0,1,.49.2l.77,1.83a.39.39,0,0,1,0,.14.38.38,0,0,1-.23.35A.35.35,0,0,1,544.16,78.77Z"/><path class="cls-1" d="M542.5,84.31a.37.37,0,0,1-.29-.14l-2.38-3a.4.4,0,0,1-.08-.23.37.37,0,0,1,.66-.23l2.38,3a.4.4,0,0,1,.08.23.37.37,0,0,1-.14.29A.4.4,0,0,1,542.5,84.31Z"/><path class="cls-1" d="M542.29,89.13A.38.38,0,0,1,542,89l-2.77-2.48a.36.36,0,0,1-.12-.28.38.38,0,0,1,.09-.25.37.37,0,0,1,.52,0l2.78,2.49a.36.36,0,0,1,.12.27.35.35,0,0,1-.1.25A.36.36,0,0,1,542.29,89.13Z"/><path class="cls-1" d="M540.61,91.86a.35.35,0,0,1-.17,0l-1.18-.62a.35.35,0,0,1-.2-.33.38.38,0,0,1,0-.17.36.36,0,0,1,.5-.15l1.18.61a.38.38,0,0,1,.2.33.33.33,0,0,1,0,.17A.36.36,0,0,1,540.61,91.86Z"/><path class="cls-1" d="M535.64,106.4a.36.36,0,0,1-.34-.25.36.36,0,0,1,.22-.47l3.94-1.43a.37.37,0,0,1,.47.22.37.37,0,0,1-.22.48l-3.94,1.42A.31.31,0,0,1,535.64,106.4Z"/><path class="cls-1" d="M536.48,110.13a.38.38,0,0,1-.33-.2.35.35,0,0,1,0-.17.38.38,0,0,1,.2-.33l2-1.06a.38.38,0,0,1,.5.16.35.35,0,0,1,0,.17.39.39,0,0,1-.19.33l-2,1.06A.47.47,0,0,1,536.48,110.13Z"/><path class="cls-1" d="M539.56,94.8a.31.31,0,0,1-.13,0l-4-1.45a.38.38,0,0,1-.22-.48.37.37,0,0,1,.47-.22l4,1.46a.36.36,0,0,1,.23.47A.39.39,0,0,1,539.56,94.8Z"/><path class="cls-1" d="M538.38,90.66a.33.33,0,0,1-.17,0l-2-1.06a.36.36,0,0,1-.19-.32.39.39,0,0,1,0-.18.36.36,0,0,1,.5-.15l2,1.06a.35.35,0,0,1,.2.32.47.47,0,0,1,0,.17A.38.38,0,0,1,538.38,90.66Z"/><path class="cls-1" d="M538.7,97.58h0l-1.55-.16a.37.37,0,0,1,.07-.74l1.56.17a.37.37,0,0,1,0,.73Z"/><path class="cls-1" d="M535.82,97.29h0l-5.38-.58a.37.37,0,0,1-.33-.36v0a.38.38,0,0,1,.41-.33l5.38.57a.38.38,0,0,1,.33.37.08.08,0,0,1,0,0A.37.37,0,0,1,535.82,97.29Z"/><path class="cls-1" d="M538.43,100h-11a.37.37,0,1,1,0-.73h11a.37.37,0,1,1,0,.73Z"/><path class="cls-1" d="M537.26,102.31a.37.37,0,0,1,0-.73l1.35-.15a.37.37,0,0,1,.41.33.37.37,0,0,1-.33.41l-1.35.14Z"/><path class="cls-1" d="M530.56,103a.37.37,0,0,1-.37-.33v0a.37.37,0,0,1,.33-.37l5.37-.57a.37.37,0,0,1,.41.33v0a.37.37,0,0,1-.33.36l-5.37.58Z"/><path class="cls-1" d="M538.53,85.73a.38.38,0,0,1-.24-.09l-5.09-4.5a.39.39,0,0,1-.12-.28.38.38,0,0,1,.09-.25.38.38,0,0,1,.52,0l5.09,4.51a.36.36,0,0,1,.12.27.38.38,0,0,1-.09.25A.38.38,0,0,1,538.53,85.73Z"/><path class="cls-1" d="M535.45,89a.34.34,0,0,1-.19,0l-1.69-1a.37.37,0,0,1-.18-.32.32.32,0,0,1,.05-.19.36.36,0,0,1,.5-.13l1.7,1a.4.4,0,0,1,.18.32.41.41,0,0,1-.05.19A.36.36,0,0,1,535.45,89Z"/><path class="cls-1" d="M532.6,80.38a.38.38,0,0,1-.25-.09l-3.31-3a.36.36,0,0,1-.12-.27.37.37,0,0,1,.62-.28l3.31,3A.36.36,0,0,1,533,80a.35.35,0,0,1-.1.25A.36.36,0,0,1,532.6,80.38Z"/><path class="cls-1" d="M520.51,100h-1.93a.37.37,0,0,1,0-.73h1.93a.37.37,0,1,1,0,.73Z"/><path class="cls-1" d="M525.82,100H522a.37.37,0,1,1,0-.73h3.84a.37.37,0,1,1,0,.73Z"/><path class="cls-1" d="M534,92.77a.27.27,0,0,1-.13,0l-7-2.53a.39.39,0,0,1-.25-.35.35.35,0,0,1,0-.13.37.37,0,0,1,.47-.22l7,2.54a.36.36,0,0,1,.25.34.28.28,0,0,1,0,.13A.35.35,0,0,1,534,92.77Z"/><path class="cls-1" d="M527.09,109.49a.38.38,0,0,1-.35-.24.51.51,0,0,1,0-.13.35.35,0,0,1,.24-.34l7-2.54a.37.37,0,0,1,.47.22.69.69,0,0,1,0,.13.38.38,0,0,1-.24.35l-7,2.53A.32.32,0,0,1,527.09,109.49Z"/><path class="cls-1" d="M533.87,111.75a.37.37,0,0,1-.32-.19.41.41,0,0,1,0-.18.38.38,0,0,1,.18-.32l1.7-1a.38.38,0,0,1,.56.32.37.37,0,0,1-.19.32l-1.69,1A.45.45,0,0,1,533.87,111.75Z"/><path class="cls-1" d="M529.4,122.38a.36.36,0,0,1-.27-.12.35.35,0,0,1-.1-.25.39.39,0,0,1,.12-.28l3.32-3a.37.37,0,0,1,.52,0,.38.38,0,0,1,.09.25.36.36,0,0,1-.12.27l-3.31,3A.39.39,0,0,1,529.4,122.38Z"/><path class="cls-1" d="M533.56,118.5a.36.36,0,0,1-.27-.12.35.35,0,0,1,0-.52l5.08-4.51a.37.37,0,0,1,.52,0,.36.36,0,0,1,.1.25.37.37,0,0,1-.13.28l-5.08,4.5A.38.38,0,0,1,533.56,118.5Z"/><path class="cls-1" d="M539.54,108.49a.35.35,0,0,1-.32-.2.34.34,0,0,1-.05-.17.4.4,0,0,1,.2-.33l1.19-.61a.37.37,0,0,1,.5.15.59.59,0,0,1,0,.17.35.35,0,0,1-.2.33l-1.19.62A.33.33,0,0,1,539.54,108.49Z"/><path class="cls-1" d="M539.63,113.08a.39.39,0,0,1-.28-.12.38.38,0,0,1-.09-.24.36.36,0,0,1,.12-.28l2.78-2.48a.36.36,0,0,1,.52,0,.38.38,0,0,1,0,.52L539.88,113A.38.38,0,0,1,539.63,113.08Z"/><path class="cls-1" d="M540.24,118.42a.4.4,0,0,1-.23-.08.38.38,0,0,1-.14-.29.34.34,0,0,1,.08-.23l2.38-3a.37.37,0,0,1,.66.23.4.4,0,0,1-.08.23l-2.38,3A.38.38,0,0,1,540.24,118.42Z"/><path class="cls-1" d="M544.54,86.79a.37.37,0,0,1-.28-.14L543,85.09a.4.4,0,0,1-.08-.23.37.37,0,0,1,.66-.24l1.27,1.57a.4.4,0,0,1,.08.23.37.37,0,0,1-.13.29A.43.43,0,0,1,544.54,86.79Z"/><path class="cls-1" d="M543.39,114.51a.41.41,0,0,1-.24-.08.37.37,0,0,1-.13-.29.34.34,0,0,1,.08-.23l1.27-1.57a.37.37,0,0,1,.66.23.41.41,0,0,1-.08.24l-1.28,1.56A.37.37,0,0,1,543.39,114.51Z"/><path class="cls-1" d="M543.5,122.8a.35.35,0,0,1-.14,0,.38.38,0,0,1-.23-.34.32.32,0,0,1,0-.14l.77-1.83a.37.37,0,0,1,.49-.2.37.37,0,0,1,.22.34.32.32,0,0,1,0,.14l-.77,1.83A.37.37,0,0,1,543.5,122.8Z"/><path class="cls-1" d="M544.66,120.12a.45.45,0,0,1-.16,0,.38.38,0,0,1-.21-.34.4.4,0,0,1,0-.15l2.7-5.84a.36.36,0,0,1,.49-.18.36.36,0,0,1,.21.33.45.45,0,0,1,0,.16l-2.7,5.84A.36.36,0,0,1,544.66,120.12Z"/><path class="cls-1" d="M548.93,78.84a.38.38,0,0,1-.36-.3L548.26,77v-.07a.37.37,0,0,1,.73-.08l.31,1.55v.08a.37.37,0,0,1-.29.36Z"/><path class="cls-1" d="M548.74,122.45h-.07a.36.36,0,0,1-.3-.36.15.15,0,0,1,0-.07l.31-1.55a.37.37,0,0,1,.73.07.17.17,0,0,1,0,.07l-.31,1.55A.36.36,0,0,1,548.74,122.45Z"/><path class="cls-1" d="M550.17,84.4a.36.36,0,0,1-.36-.29l-1-4.51s0,0,0-.08a.38.38,0,0,1,.74-.08l1,4.51s0,0,0,.08a.37.37,0,0,1-.29.36Z"/><path class="cls-1" d="M549.31,119.84h-.08a.36.36,0,0,1-.29-.36.25.25,0,0,1,0-.08l1-4.5a.36.36,0,0,1,.44-.28.36.36,0,0,1,.29.36.25.25,0,0,1,0,.08l-1,4.5A.37.37,0,0,1,549.31,119.84Z"/><path class="cls-1" d="M553.79,84.12a.37.37,0,0,1-.37-.37V76.42a.37.37,0,0,1,.37-.37.38.38,0,0,1,.37.37v7.33A.38.38,0,0,1,553.79,84.12Z"/><path class="cls-1" d="M553.79,75.44a.36.36,0,0,1-.37-.37V70.44a.37.37,0,0,1,.37-.37.38.38,0,0,1,.37.37v4.63A.37.37,0,0,1,553.79,75.44Z"/><path class="cls-1" d="M553.79,69.4a.36.36,0,0,1-.37-.37V67.84a.36.36,0,0,1,.37-.37.37.37,0,0,1,.37.37V69A.37.37,0,0,1,553.79,69.4Z"/><path class="cls-1" d="M553.87,131.53a.37.37,0,0,1-.37-.37V130a.37.37,0,0,1,.37-.37.38.38,0,0,1,.37.37v1.2A.38.38,0,0,1,553.87,131.53Z"/><path class="cls-1" d="M553.87,128.92a.36.36,0,0,1-.37-.37v-4.63a.37.37,0,0,1,.37-.37.38.38,0,0,1,.37.37v4.63A.37.37,0,0,1,553.87,128.92Z"/><path class="cls-1" d="M553.87,122.94a.37.37,0,0,1-.37-.37v-7.32a.36.36,0,0,1,.37-.37.37.37,0,0,1,.37.37v7.32A.38.38,0,0,1,553.87,122.94Z"/><path class="cls-1" d="M557.37,84.4h-.08A.37.37,0,0,1,557,84a.22.22,0,0,1,0-.08l1-4.51a.37.37,0,0,1,.44-.28.36.36,0,0,1,.29.36v.08l-1,4.51A.36.36,0,0,1,557.37,84.4Z"/><path class="cls-1" d="M558.46,119.84a.37.37,0,0,1-.36-.29l-1-4.5a.25.25,0,0,1,0-.08.36.36,0,0,1,.29-.36.36.36,0,0,1,.44.28l1,4.5a.25.25,0,0,1,0,.08.36.36,0,0,1-.29.36Z"/><path class="cls-1" d="M558.61,78.84h-.08a.38.38,0,0,1-.3-.36s0,0,0-.08l.31-1.55a.37.37,0,0,1,.73.08V77L559,78.54A.38.38,0,0,1,558.61,78.84Z"/><path class="cls-1" d="M559,122.45a.36.36,0,0,1-.36-.3l-.31-1.55a.17.17,0,0,1,0-.07.37.37,0,0,1,.73-.07l.31,1.55a.15.15,0,0,1,0,.07.36.36,0,0,1-.3.36Z"/><path class="cls-1" d="M560.3,85.45l-.15,0a.37.37,0,0,1-.22-.34.4.4,0,0,1,0-.15l2.7-5.84a.37.37,0,0,1,.71.15.28.28,0,0,1,0,.15l-2.69,5.85A.39.39,0,0,1,560.3,85.45Z"/><path class="cls-1" d="M563.11,120.12a.36.36,0,0,1-.33-.21l-2.7-5.84a.45.45,0,0,1,0-.16.36.36,0,0,1,.21-.33.36.36,0,0,1,.49.18l2.7,5.84a.4.4,0,0,1,0,.15.38.38,0,0,1-.21.34A.45.45,0,0,1,563.11,120.12Z"/><path class="cls-1" d="M564.27,122.8a.37.37,0,0,1-.34-.23l-.77-1.83a.32.32,0,0,1,0-.14.37.37,0,0,1,.22-.34.37.37,0,0,1,.49.2l.77,1.83a.32.32,0,0,1,0,.14.38.38,0,0,1-.23.34A.35.35,0,0,1,564.27,122.8Z"/><path class="cls-1" d="M564.38,114.51a.37.37,0,0,1-.28-.14l-1.27-1.56a.36.36,0,0,1-.09-.24.37.37,0,0,1,.66-.23l1.27,1.57a.34.34,0,0,1,.08.23.37.37,0,0,1-.13.29A.41.41,0,0,1,564.38,114.51Z"/><path class="cls-1" d="M565,84.31a.4.4,0,0,1-.23-.08.37.37,0,0,1-.14-.29.4.4,0,0,1,.08-.23l2.38-3a.37.37,0,0,1,.66.23.4.4,0,0,1-.08.23l-2.38,3A.37.37,0,0,1,565,84.31Z"/><path class="cls-1" d="M567.53,118.42a.38.38,0,0,1-.29-.14l-2.37-3a.35.35,0,0,1-.09-.23.37.37,0,0,1,.14-.29.37.37,0,0,1,.52.06l2.38,3a.34.34,0,0,1,.08.23.38.38,0,0,1-.14.29A.38.38,0,0,1,567.53,118.42Z"/><path class="cls-1" d="M568.14,113.08a.38.38,0,0,1-.25-.09l-2.77-2.48a.38.38,0,0,1,0-.52.36.36,0,0,1,.52,0l2.78,2.48a.36.36,0,0,1,.12.28.38.38,0,0,1-.09.24A.39.39,0,0,1,568.14,113.08Z"/><path class="cls-1" d="M568.23,108.49a.33.33,0,0,1-.17,0l-1.19-.62a.35.35,0,0,1-.2-.33.59.59,0,0,1,0-.17.37.37,0,0,1,.5-.15l1.19.61a.4.4,0,0,1,.2.33.34.34,0,0,1-.05.17A.35.35,0,0,1,568.23,108.49Z"/><path class="cls-1" d="M574.21,118.5a.38.38,0,0,1-.25-.09l-5.08-4.5a.41.41,0,0,1-.13-.28.36.36,0,0,1,.1-.25.37.37,0,0,1,.52,0l5.08,4.51a.35.35,0,0,1,0,.52A.36.36,0,0,1,574.21,118.5Z"/><path class="cls-1" d="M573.9,111.75a.45.45,0,0,1-.19,0l-1.69-1a.39.39,0,0,1-.19-.32.3.3,0,0,1,.06-.18.36.36,0,0,1,.5-.14l1.7,1a.38.38,0,0,1,.18.32.41.41,0,0,1,0,.18A.37.37,0,0,1,573.9,111.75Z"/><path class="cls-1" d="M578.37,122.38a.39.39,0,0,1-.25-.1l-3.31-3a.36.36,0,0,1-.12-.27.38.38,0,0,1,.09-.25.38.38,0,0,1,.53,0l3.31,3a.39.39,0,0,1,.12.28.35.35,0,0,1-.1.25A.36.36,0,0,1,578.37,122.38Z"/><path class="cls-1" d="M580.68,109.49a.25.25,0,0,1-.12,0l-7-2.53a.38.38,0,0,1-.24-.35.69.69,0,0,1,0-.13.37.37,0,0,1,.47-.22l7,2.54a.35.35,0,0,1,.24.34.51.51,0,0,1,0,.13A.38.38,0,0,1,580.68,109.49Z"/><path class="cls-1" d="M585.52,100h-3.8a.37.37,0,1,1,0-.73h3.8a.37.37,0,1,1,0,.73Z"/><path class="cls-1" d="M588.91,100H587a.37.37,0,1,1,0-.73h1.92a.37.37,0,1,1,0,.73Z"/></g></g></svg>