<svg width="178" height="178" viewBox="0 0 178 178" fill="none" xmlns="http://www.w3.org/2000/svg">
<path d="M109.62 138.46L100.16 156.88L93.6 159L103.06 140.59L109.62 138.46ZM90.05 144.8L80.48 156.8L81.36 147.59L75.68 149.43L65.68 161.59L67.03 152.27L60.23 154.47L58.63 170.47L64.49 168.58L74.49 156.58L73.81 165.53L79.7 163.63L97.12 142.52L90.05 144.8ZM127.78 141.12L123.38 134.01L117.26 136.01L107.8 154.43L114.33 152.31L119.77 141.71L124.37 149.06L130.12 147.2L139.58 128.78L133.05 130.9L127.78 141.12ZM87.4 29.23C83.2 30.58 79.87 33.77 78.97 37.31L76.43 47.31L37.78 58.49C33.58 59.84 30.26 63.03 29.35 66.57L23.81 88.32L62.9 77C67.1 75.65 70.43 72.46 71.33 68.92L72.53 64.21C72.9699 62.5701 73.8178 61.0682 74.9945 59.8442C76.1713 58.6203 77.6387 57.714 79.26 57.21L139.07 37.93L134.9 54.29L75.82 73.29C71.62 74.65 68.29 77.84 67.39 81.38L64.85 91.38L26.2 102.54C22 103.9 18.68 107.09 17.77 110.62L12.23 132.37L51.32 121.06C55.52 119.71 58.85 116.52 59.75 112.98L60.95 108.27C61.39 106.63 62.2378 105.128 63.4145 103.904C64.5913 102.68 66.0587 101.774 67.68 101.27L127.68 81.93L123.32 99L64.24 118C60.04 119.36 56.71 122.55 55.81 126.09L53.27 136.09L14.62 147.27C10.42 148.63 7.10003 151.82 6.19003 155.35L0.650024 177.1L39.74 165.79C43.94 164.44 47.27 161.25 48.17 157.71L49.37 153C49.8099 151.36 50.6578 149.858 51.8345 148.634C53.0113 147.41 54.4787 146.504 56.1 146L140.52 118.79C144.72 117.43 148.05 114.24 148.95 110.7L154.16 90.29L160 67.47C160.232 66.9823 160.416 66.4732 160.55 65.95L165.76 45.54L171.23 24.09C171.627 23.3969 171.93 22.6536 172.13 21.88L177.68 0.130005L87.4 29.23Z" fill="white"/>
</svg>
