<svg xmlns="http://www.w3.org/2000/svg" xmlns:xlink="http://www.w3.org/1999/xlink" viewBox="0 0 25 25"><defs><style>.cls-1{fill:#4b0085;}.cls-2{fill:url(#linear-gradient);}</style><linearGradient id="linear-gradient" y1="12.51" x2="24.98" y2="12.51" gradientUnits="userSpaceOnUse"><stop offset="0" stop-color="#74c387"/><stop offset="0.32" stop-color="#63bb46"/><stop offset="0.68" stop-color="#008e46"/></linearGradient></defs><g id="Layer_2" data-name="Layer 2"><g id="Layer_1-2" data-name="Layer 1"><ellipse class="cls-1" cx="12.51" cy="12.49" rx="12.49" ry="12.49"/><path class="cls-2" d="M6.23,4.54h0a.45.45,0,0,1,.09-.64A.44.44,0,0,1,7,4H7a.44.44,0,0,1-.09.63A.44.44,0,0,1,6.23,4.54Zm.25,16.65L7,20.86l-.42-.29Zm11.34-.05a.44.44,0,1,0-.77.43h0a.45.45,0,1,0,.78-.43Zm-8.4,1h0a.44.44,0,0,0,.33.56l.25.07.24-.86L10,21.87A.43.43,0,0,0,9.42,22.17Zm-4-16.31a.44.44,0,0,0,0-.65h0a.43.43,0,0,0-.64,0l-.19.19.65.62ZM2.63,9.35h0c-.13,0-.24,0-.29.22l-.1.33.44.13.1-.34C2.82,9.53,2.77,9.39,2.63,9.35ZM16.68,2.82l-.47.43.47.21Zm4.27,16-.31-.56-.3.42Zm1.33-3.65h0A.44.44,0,1,0,22,16h0a.44.44,0,1,0,.27-.84ZM25,12.51A12.49,12.49,0,1,1,12.49,0,12.49,12.49,0,0,1,25,12.51Zm-1.83-1L22,11.54v.13l.92-.05-.89.77v.11l1.13-.06v-.13l-.9,0,.86-.76Zm-.16-1-1.11.21,0,.13L23,10.57ZM21.64,8.66a.21.21,0,0,0,.27.12h0A.23.23,0,0,0,22,8.5a.22.22,0,0,0-.28-.11h0A.2.2,0,0,0,21.64,8.66Zm-.79-2.83-.91.68.49.66.1-.07-.42-.56.32-.24.37.5.09-.07-.37-.5L20.83,6l.41.56.1-.07ZM17.38,4.28l.11.07L18,3.58l.09,1.17.09.06.62-.94-.1-.07-.5.76-.09-1.15L18,3.34Zm-1.62-.77.12.05.24-.22.56.24v.33l.12,0,0-1.25-.11,0ZM14.25,3.1l.12,0,.12-.49.63.15L15,3.28l.12,0,.26-1.1-.12,0-.12.49-.63-.15L14.63,2l-.12,0ZM13.15,3a.56.56,0,0,0,.46-.17l-.08-.08a.5.5,0,0,1-.37.14.45.45,0,0,1-.41-.5h0A.44.44,0,0,1,13.22,2a.47.47,0,0,1,.34.17L13.65,2a.59.59,0,0,0-1,.35h0A.56.56,0,0,0,13.15,3Zm-2.63-.42h0a.21.21,0,0,0,.24.17.21.21,0,0,0,.17-.25h0a.21.21,0,1,0-.41.07ZM7.52,3l.47,1L8.11,4l-.39-.83.63.38h0l.12-.72.38.83L9,3.6l-.48-1-.12,0-.11.73L7.64,3ZM4.46,5.44l.81.78.28-.28a.59.59,0,0,0,0-.83h0a.57.57,0,0,0-.82,0Zm-1,1.36.93.64.47-.68-.1-.07-.39.58L4,7l.35-.5-.09-.07L3.93,7l-.32-.22L4,6.19l-.1-.06ZM2.65,8.3l1,.48L4,8l-.1,0-.3.63-.36-.17.27-.56-.11,0-.26.56-.35-.17.29-.62L3,7.56ZM2.09,10l1.08.31,0-.12-.42-.12.08-.31.52-.2,0-.15-.54.21a.34.34,0,0,0-.23-.39h0a.3.3,0,0,0-.23,0,.44.44,0,0,0-.2.27Zm-.27,1.66L3,11.78v-.13l-.49-.06.07-.6-.11,0-.07.61L2,11.53,2,10.85H1.92ZM2.46,14h0a.2.2,0,0,0,.18-.23.21.21,0,0,0-.23-.19h0a.23.23,0,0,0-.19.24A.21.21,0,0,0,2.46,14Zm.3,3,1.05-.42-.05-.12-.85.34.41-.61h0L2.6,16l.85-.34,0-.12L2.36,16l0,.12.73.16-.42.61ZM4,17.44H4c.09-.06.22,0,.29.12a.49.49,0,0,1,.07.41l.12,0a.6.6,0,0,0-.09-.49.34.34,0,0,0-.47-.16h0c-.15.09-.17.24-.08.48s.06.32,0,.38h0c-.09.05-.2,0-.28-.11a.49.49,0,0,1-.07-.34H3.29a.57.57,0,0,0,.09.41.33.33,0,0,0,.46.15h0c.16-.1.17-.24.08-.49S3.86,17.5,4,17.44Zm1.13,1.12L5,18.46l-.88.71.08.1Zm1,1.06-.55-.53-.08.08.45.44-.7.73.09.09ZM6.93,4.76A.57.57,0,0,0,7.06,4h0a.58.58,0,1,0-.94.68h0A.58.58,0,0,0,6.93,4.76ZM7.52,20.7l-.11-.07-.28.17-.51-.35.06-.32-.11-.08-.22,1.23.09.06Zm1.26.64L8,21l0,.11.63.29-.17.36-.56-.26,0,.1.56.26-.16.35-.63-.29L7.56,22l.74.34Zm1.62.52L10,21.75a.57.57,0,0,0-.73.39h0a.55.55,0,0,0,.43.7l.38.11Zm.88.14-.12,0L11,23.1l.13,0ZM13,16.13l-.46.16-.62.81.06-.62-.37.12-.64.82.08-.63-.43.15L10.52,18l.38-.12.65-.81-.05.6.38-.13Zm-.23,1.12.42-.15.61-1.24-.42.15Zm.69,5.35h0a.21.21,0,0,0-.22-.2.21.21,0,0,0-.2.23h0a.23.23,0,0,0,.23.2A.21.21,0,0,0,13.47,22.6Zm1.29-6,.37-.13.61-1.24-.42.14L15,16l-.28-.48-.4.14-.61,1.24.42-.15.36-.71Zm1.62,5.91L16,21.42l-.11,0,.29.88-1-.65-.1,0,.36,1.07.12,0-.29-.86,1,.63Zm1.56-1.42h0a.58.58,0,1,0-1,.57h0a.56.56,0,0,0,.78.22A.57.57,0,0,0,17.94,21.07ZM18.2,6.56l-5.82,2a.85.85,0,0,0-.55.54l-.16.67-2.49.76a.83.83,0,0,0-.55.54l-.36,1.46,2.53-.76a.81.81,0,0,0,.54-.54l.08-.32a.66.66,0,0,1,.43-.47l3.86-1.3-.27,1.1-3.81,1.28a.8.8,0,0,0-.54.55l-.17.67-2.49.75a.79.79,0,0,0-.54.54l-.36,1.46,2.52-.76a.79.79,0,0,0,.54-.54l.08-.32a.68.68,0,0,1,.43-.47L15,12.06l-.29,1.15-3.81,1.28a.82.82,0,0,0-.54.55l-.16.67-2.5.75a.81.81,0,0,0-.54.54l-.36,1.46L9.3,17.7a.83.83,0,0,0,.55-.54l.07-.32a.67.67,0,0,1,.44-.47l5.44-1.83a.81.81,0,0,0,.55-.54l.33-1.37h0l.38-1.54,0-.1.33-1.37.35-1.45A.35.35,0,0,0,17.84,8ZM19,21l-.68-.89-.1.07.68.9Zm.1-15.31a.74.74,0,0,0,.45.19l.31-.33-.34-.32-.08.08.25.24-.19.2a.57.57,0,0,1-.32-.14.44.44,0,0,1,0-.65h0a.45.45,0,0,1,.63,0,.51.51,0,0,1,.16.33h.12a.59.59,0,0,0-1-.37h0A.55.55,0,0,0,19.13,5.66Zm1.18,14.16-.08-.08L20,20l-.71-.72-.09.09.71.72-.27.27.08.08Zm.79-.95-.6-1.1-.08.11.16.28-.37.5-.32-.08-.08.11L21,19ZM22.22,17,21,16.9l-.05.1.78,1,.07-.12L21.1,17l1,.09Zm.1-1.95h0a.56.56,0,0,0-.72.37.57.57,0,0,0,.38.73h0a.57.57,0,0,0,.73-.37A.58.58,0,0,0,22.32,15.05Zm.84-1.66L22,13.25v.12l.91.12-1,.6v.11l1.12.14,0-.13-.9-.11,1-.59Z"/></g></g></svg>